<svg width="85" height="104" viewBox="0 0 85 104" fill="none" xmlns="http://www.w3.org/2000/svg">
<path d="M71.9949 96H0V0H53.6137C53.6137 0.0625228 53.6137 0.125046 53.6137 0.185067C53.6111 6.04721 53.6214 11.9068 53.5882 17.769C53.5831 18.5443 53.818 18.7793 54.6123 18.7743C59.9604 18.7443 65.3085 18.7593 70.6591 18.7543C70.9988 18.7543 71.3692 18.8494 71.6475 18.5493C72.0894 18.9769 71.9949 19.5271 71.9949 20.0498C71.9949 45.3665 71.9949 70.6833 71.9949 96ZM36.8569 48.5502C27.9281 48.5502 18.9993 48.5502 10.073 48.5502C9.75375 48.5502 9.43195 48.5352 9.1178 48.5752C8.72959 48.6252 8.47164 48.8678 8.45121 49.258C8.43078 49.6981 8.70661 49.9507 9.13057 50.0282C9.34766 50.0683 9.57497 50.0508 9.79717 50.0508C27.7799 50.0508 45.7652 50.0508 63.748 50.0508C64.034 50.0508 64.3303 50.0583 64.601 49.9882C65.0071 49.8832 65.2855 49.6006 65.2344 49.1704C65.191 48.7878 64.8922 48.5827 64.4989 48.5602C64.2128 48.5427 63.9242 48.5502 63.6382 48.5502C54.7094 48.5502 45.7806 48.5502 36.8543 48.5502H36.8569ZM36.8594 60.3745C27.9255 60.3745 18.9916 60.372 10.0577 60.382C9.42939 60.382 8.50995 60.1419 8.48696 61.1073C8.46398 62.0901 9.38597 61.8726 10.0168 61.8726C27.9153 61.8801 45.8163 61.8776 63.7148 61.8776C63.937 61.8776 64.1617 61.8701 64.3839 61.8751C64.8947 61.8851 65.191 61.5975 65.2012 61.1448C65.214 60.6946 64.9382 60.387 64.4248 60.377C64.1694 60.372 63.914 60.372 63.6586 60.372C54.7247 60.372 45.7908 60.372 36.8569 60.372L36.8594 60.3745ZM36.747 38.0714C45.7091 38.0714 54.6685 38.0714 63.6305 38.0714C63.8859 38.0714 64.1413 38.0639 64.3967 38.0689C64.9126 38.0789 65.1834 37.7838 65.2063 37.3336C65.2293 36.891 64.8845 36.6684 64.4784 36.5983C64.2001 36.5483 63.9063 36.5683 63.6203 36.5683C45.7295 36.5683 27.8412 36.5683 9.95041 36.5683C9.31191 36.5683 8.50229 36.4608 8.49973 37.3436C8.49973 38.279 9.36299 38.0664 9.96062 38.0664C18.8894 38.0739 27.8182 38.0714 36.747 38.0714ZM26.6357 85.8838C27.831 85.7763 29.0569 85.3686 30.2164 84.7559C30.6736 84.5158 30.74 84.1282 30.5434 83.7205C30.339 83.2979 29.961 83.1578 29.5039 83.3579C29.154 83.5105 28.8194 83.6955 28.4695 83.8406C26.7124 84.5633 25.4481 84.4608 24.6947 83.2829C23.6705 81.6823 22.2147 81.5522 20.5112 82.6101C19.7067 83.1103 18.9124 83.643 18.0568 84.0481C16.7441 84.6709 15.7863 84.4233 14.78 83.4154C14.3816 83.0178 14.3382 82.7477 14.7749 82.3475C15.5641 81.6248 16.3559 80.8995 16.9816 80.0217C18.1743 78.3486 18.8639 76.5679 18.2279 74.5047C17.8423 73.2492 16.7364 72.2689 15.4747 72.2563C14.1926 72.2438 13.1506 72.8066 12.5044 73.9595C11.1406 76.3929 11.3219 78.9388 11.9834 81.4897C12.152 82.1375 12.0907 82.4976 11.5186 82.8877C10.3335 83.6955 9.14079 84.4308 7.68245 84.6709C7.21251 84.7484 6.67617 84.911 6.77578 85.5412C6.88305 86.2214 7.42194 86.314 8.01703 86.2339C8.17282 86.2114 8.32606 86.1639 8.48185 86.1314C9.91465 85.8263 11.1431 85.116 12.2771 84.2457C12.7419 83.8881 13.0586 83.8306 13.4596 84.3232C15.1018 86.3615 17.6814 86.289 19.7297 84.9985C20.3988 84.5783 21.0808 84.1782 21.7499 83.7555C22.3629 83.3679 22.7996 83.3954 23.2491 84.0632C24.0051 85.1886 25.0931 85.8513 26.6434 85.8888L26.6357 85.8838ZM27.0903 24.7465C21.4128 24.7465 15.7327 24.7415 10.0551 24.754C9.43194 24.754 8.50739 24.5064 8.48696 25.4793C8.46398 26.4646 9.38597 26.2446 10.0143 26.2446C21.4664 26.2521 32.9211 26.2496 44.3733 26.2496C44.5955 26.2496 44.8203 26.2471 45.0425 26.2471C45.5737 26.2471 45.7755 25.962 45.7678 25.4718C45.7601 25.0216 45.5635 24.7615 45.0833 24.754C44.8279 24.749 44.5725 24.7465 44.3171 24.7465C38.5757 24.7465 32.8317 24.7465 27.0903 24.7465ZM27.1772 12.9247C21.3745 12.9247 15.5718 12.9247 9.76907 12.9247C9.19698 12.9247 8.46908 12.8447 8.49462 13.6525C8.51761 14.3752 9.18421 14.4428 9.79206 14.4278C9.88656 14.4278 9.98361 14.4278 10.0781 14.4278C21.492 14.4278 32.9058 14.4278 44.3197 14.4278C44.6057 14.4278 44.9045 14.4503 45.1753 14.3802C45.5916 14.2727 45.7908 13.9676 45.7601 13.5324C45.7295 13.0998 45.4664 12.9397 45.0629 12.9322C44.8075 12.9297 44.5521 12.9272 44.2967 12.9272C38.591 12.9272 32.8828 12.9272 27.1772 12.9272V12.9247ZM53.417 78.9488C50.7711 78.9513 48.1277 78.9338 45.4817 78.9688C44.9454 78.9763 44.2175 78.9963 44.2533 79.8116C44.2865 80.5869 44.9428 80.6069 45.5252 80.6094C50.6868 80.6169 55.851 80.6269 61.0127 80.5944C61.6205 80.5919 62.568 80.6994 62.5348 79.7566C62.5042 78.8638 61.618 78.9613 60.9667 78.9563C58.4484 78.9388 55.9302 78.9488 53.4145 78.9488H53.417Z" fill="#EFEDE3"/>
<path d="M53.6137 0.185067C55.6339 2.20831 57.6669 4.21952 59.6718 6.25776C61.6103 8.23098 63.513 10.2342 65.4413 12.2174C67.5024 14.3332 69.5762 16.439 71.645 18.5497C71.3666 18.8524 70.9963 18.7548 70.6566 18.7548C65.3085 18.7598 59.9604 18.7448 54.6098 18.7748C53.8155 18.7798 53.583 18.5447 53.5856 17.7695C53.6188 11.9073 53.6086 6.04768 53.6111 0.185547L53.6137 0.185067Z" fill="#DCD9CC"/>
<path d="M36.8543 48.5524C45.7831 48.5524 54.7119 48.5524 63.6382 48.5524C63.9242 48.5524 64.2128 48.5449 64.4989 48.5624C64.8922 48.5874 65.1884 48.79 65.2344 49.1726C65.2855 49.6028 65.0045 49.8854 64.601 49.9904C64.3303 50.0604 64.034 50.0529 63.748 50.0529C45.7652 50.0554 27.7799 50.0529 9.79715 50.0529C9.57495 50.0529 9.34509 50.0705 9.13055 50.0304C8.70914 49.9529 8.43076 49.7003 8.45119 49.2602C8.46907 48.87 8.72958 48.6274 9.11778 48.5774C9.43193 48.5349 9.75373 48.5524 10.073 48.5524C19.0018 48.5524 27.9306 48.5524 36.8568 48.5524H36.8543Z" fill="#DCD9CC"/>
<path d="M36.8594 60.3745C45.7933 60.3745 54.7272 60.3749 63.6611 60.3749C63.9165 60.3749 64.1719 60.3749 64.4273 60.3799C64.9407 60.3874 65.2165 60.6975 65.2038 61.1477C65.191 61.5978 64.8973 61.8879 64.3865 61.8779C64.1643 61.8729 63.9395 61.8804 63.7173 61.8804C45.8189 61.8804 27.9178 61.8804 10.0193 61.8754C9.38851 61.8754 8.46651 62.093 8.4895 61.1102C8.51248 60.1448 9.43192 60.3849 10.0602 60.3849C18.9941 60.3749 27.928 60.3774 36.862 60.3774L36.8594 60.3745Z" fill="#DCD9CC"/>
<path d="M36.7471 38.0736C27.8183 38.0736 18.8895 38.0761 9.96065 38.0686C9.36301 38.0686 8.49976 38.2787 8.49976 37.3458C8.49976 36.463 9.30938 36.5705 9.95043 36.5705C27.8412 36.5705 45.7295 36.5705 63.6203 36.5705C63.9064 36.5705 64.2001 36.5505 64.4785 36.6005C64.8846 36.6706 65.2293 36.8932 65.2064 37.3358C65.1834 37.786 64.9101 38.0811 64.3967 38.0711C64.1413 38.0661 63.8859 38.0736 63.6305 38.0736C54.6685 38.0736 45.7091 38.0736 36.7471 38.0736Z" fill="#DCD9CC"/>
<path d="M26.6357 85.8866C25.0829 85.8491 23.9974 85.1863 23.2414 84.0609C22.7919 83.3932 22.3552 83.3657 21.7422 83.7533C21.0756 84.176 20.3912 84.5761 19.722 84.9962C17.6737 86.2867 15.0967 86.3592 13.4519 84.321C13.0535 83.8258 12.7343 83.8859 12.2694 84.2435C11.1355 85.1138 9.90698 85.8241 8.47418 86.1292C8.31839 86.1617 8.1677 86.2117 8.00935 86.2317C7.41427 86.3142 6.87537 86.2192 6.7681 85.5389C6.6685 84.9112 7.20484 84.7462 7.67478 84.6686C9.13311 84.4285 10.3284 83.6908 11.5109 82.8855C12.083 82.4953 12.1417 82.1352 11.9757 81.4875C11.3142 78.934 11.1329 76.3881 12.4967 73.9572C13.1429 72.8068 14.1849 72.2416 15.4671 72.2541C16.7287 72.2666 17.8346 73.247 18.2203 74.5024C18.8537 76.5632 18.1666 78.3463 16.9739 80.0194C16.3482 80.8973 15.5564 81.6225 14.7673 82.3453C14.328 82.7454 14.3739 83.0155 14.7724 83.4132C15.7812 84.421 16.7389 84.6686 18.0492 84.0459C18.9047 83.6408 19.699 83.1081 20.5036 82.6079C22.2071 81.55 23.6603 81.68 24.687 83.2806C25.4404 84.4586 26.7072 84.5611 28.4618 83.8383C28.8143 83.6933 29.1489 83.5082 29.4962 83.3557C29.9559 83.1531 30.3314 83.2956 30.5357 83.7183C30.7323 84.1259 30.6659 84.5111 30.2088 84.7537C29.0493 85.3664 27.8233 85.7765 26.6281 85.8816L26.6357 85.8866ZM13.0101 78.3038C12.8901 79.0091 13.2272 79.8344 13.406 80.6822C13.503 81.1448 13.7124 81.1874 14.0368 80.8622C14.5655 80.327 15.1555 79.8319 15.6075 79.2392C16.4223 78.1763 16.9867 76.9808 16.8334 75.6078C16.7517 74.8676 16.5755 74.0723 15.6356 73.9022C14.7264 73.7371 14.1185 74.2073 13.7176 74.9676C13.1991 75.9555 13.0203 77.0183 13.0127 78.3038H13.0101Z" fill="#DCD9CC"/>
<path d="M27.0903 24.7465C32.8317 24.7465 38.5757 24.7465 44.3171 24.7465C44.5725 24.7465 44.8279 24.749 45.0833 24.754C45.5635 24.7615 45.7601 25.0216 45.7678 25.4718C45.7755 25.962 45.5737 26.2471 45.0425 26.2471C44.8203 26.2471 44.5955 26.2496 44.3733 26.2496C32.9211 26.2496 21.4664 26.2496 10.0143 26.2446C9.38342 26.2446 8.46398 26.4672 8.48696 25.4793C8.50995 24.5064 9.43194 24.7565 10.0551 24.754C15.7327 24.7415 21.4128 24.7465 27.0903 24.7465Z" fill="#DCD9CC"/>
<path d="M27.1772 12.9247C32.8828 12.9247 38.591 12.9247 44.2967 12.9247C44.5521 12.9247 44.8075 12.9247 45.0629 12.9297C45.469 12.9347 45.732 13.0973 45.7601 13.5299C45.7908 13.9651 45.5916 14.2702 45.1753 14.3777C44.9045 14.4478 44.6057 14.4253 44.3197 14.4253C32.9058 14.4253 21.492 14.4253 10.0781 14.4253C9.98361 14.4253 9.88656 14.4253 9.79206 14.4253C9.18421 14.4403 8.51761 14.3727 8.49463 13.65C8.46909 12.8422 9.19698 12.9222 9.76908 12.9222C15.5718 12.9222 21.3745 12.9222 27.1772 12.9222L27.1772 12.9247Z" fill="#DCD9CC"/>
<path d="M53.417 78.9513C55.9353 78.9513 58.4535 78.9413 60.9692 78.9588C61.6205 78.9638 62.5042 78.8663 62.5374 79.7591C62.5706 80.7019 61.6231 80.5944 61.0152 80.5969C55.8536 80.6269 50.6894 80.6169 45.5277 80.6119C44.9454 80.6119 44.289 80.5894 44.2558 79.8141C44.2201 78.9988 44.948 78.9788 45.4843 78.9713C48.1277 78.9363 50.7737 78.9538 53.4196 78.9538L53.417 78.9513Z" fill="#DCD9CC"/>
<path d="M13.0101 78.3038C13.0178 77.0183 13.1965 75.9556 13.715 74.9677C14.116 74.2074 14.7238 73.7398 15.6331 73.9023C16.5729 74.0724 16.7492 74.8652 16.8309 75.608C16.9841 76.981 16.4197 78.1764 15.605 79.2393C15.1504 79.832 14.5629 80.3247 14.0343 80.8624C13.7124 81.19 13.503 81.145 13.4034 80.6823C13.2246 79.8345 12.8901 79.0092 13.0075 78.3039L13.0101 78.3038Z" fill="#EFEDE3"/>
<path d="M81 83C81 92.3888 73.3888 100 64 100C54.6112 100 47 92.3888 47 83C47 73.6112 54.6112 66 64 66C73.3888 66 81 73.6112 81 83Z" fill="#E97786"/>
<path fill-rule="evenodd" clip-rule="evenodd" d="M85 83C85 94.598 75.598 104 64 104C52.402 104 43 94.598 43 83C43 71.402 52.402 62 64 62C75.598 62 85 71.402 85 83ZM64 100C73.3888 100 81 92.3888 81 83C81 73.6112 73.3888 66 64 66C54.6112 66 47 73.6112 47 83C47 92.3888 54.6112 100 64 100Z" fill="#E97786"/>
<path fill-rule="evenodd" clip-rule="evenodd" d="M71.9484 79.6225L62.0625 90.1675L57.0516 84.8225L58.9484 83.0443L62.0625 86.366L70.0516 77.8443L71.9484 79.6225Z" fill="white"/>
</svg>
