<svg width="96" height="96" viewBox="0 0 96 96" fill="none" xmlns="http://www.w3.org/2000/svg">
<path d="M48.28 0.0175781C49.64 1.22258 51.005 2.42258 52.36 3.63258C54.5 5.54258 56.85 7.17008 59.3175 8.61008C62.5875 10.5201 66.0325 12.0551 69.6725 13.1326C72.6425 14.0101 75.6525 14.6501 78.735 15.0026C80.675 15.2251 82.61 15.3876 84.56 15.3601C85.74 15.3426 86.2475 15.8451 86.25 17.0426C86.2575 20.4101 86.145 23.7801 86.2775 27.1426C86.495 32.7301 86.7775 38.3151 86.76 43.9076C86.75 46.6976 86.6675 49.4951 86.4225 52.2726C85.935 57.7826 85.085 63.2301 82.905 68.3751C81.6475 71.3401 80.04 74.0926 78.0375 76.6326C74.1275 81.5826 69.2475 85.3426 63.84 88.5001C58.8775 91.3976 53.615 93.6401 48.27 95.7026C47.9475 95.8276 47.635 95.8151 47.2825 95.6776C43.39 94.1551 39.52 92.5851 35.795 90.6851C31.9025 88.7001 28.1675 86.4426 24.7375 83.7326C17.615 78.1076 12.8825 70.9001 10.755 62.0501C10.175 59.6376 9.82503 57.1801 9.52503 54.7126C9.27503 52.6601 9.19503 50.5976 9.04753 48.5426C8.94253 47.0776 9.03003 45.5801 9.03003 44.0976C9.03003 41.7926 8.90503 39.4826 9.02503 37.1826C9.16503 34.5101 9.02503 31.8301 9.22753 29.1751C9.41503 26.7476 9.21753 24.3251 9.39253 21.9101C9.52003 20.1401 9.51753 18.3751 9.56753 16.6076C9.59253 15.6976 10.0125 15.3276 11.0525 15.3726C13.3225 15.4701 15.585 15.2676 17.8125 14.9501C21.085 14.4826 24.325 13.7801 27.4575 12.6851C32.4725 10.9326 37.15 8.52258 41.37 5.29008C43.1625 3.91758 44.925 2.49508 46.46 0.820078C46.7275 0.530078 47.0475 0.287578 47.3425 0.0225781C47.655 0.0225781 47.965 0.0225781 48.2775 0.0225781L48.28 0.0175781ZM81.195 42.7526C81.1675 41.7676 81.1175 40.4026 81.0575 39.0401C80.9225 35.9351 81.005 32.8226 80.855 29.7126C80.7325 27.1376 80.855 24.5526 80.65 21.9751C80.595 21.2801 80.3 20.8776 79.605 20.7801C77.86 20.5326 76.11 20.3301 74.375 20.0251C69.7075 19.2051 65.2125 17.8051 60.925 15.7801C56.605 13.7426 52.575 11.2551 48.965 8.10508C48.285 7.51258 47.5175 7.50758 46.8525 8.09758C44.87 9.85258 42.725 11.3801 40.475 12.7626C36.025 15.4926 31.285 17.5526 26.2475 18.9426C22.9525 19.8526 19.5975 20.3751 16.215 20.7801C15.5175 20.8626 15.2475 21.2751 15.155 21.9626C14.7825 24.7126 15.0375 27.4826 14.845 30.2426C14.63 33.3076 14.7475 36.3951 14.6475 39.4751C14.56 42.2351 14.585 45.0026 14.745 47.7751C14.9225 50.8401 15.04 53.9001 15.535 56.9351C16.13 60.5976 17.0925 64.1476 18.705 67.5026C21.475 73.2576 25.8425 77.5976 30.97 81.2376C35.66 84.5676 40.82 87.0301 46.1375 89.1676C46.925 89.4826 47.7025 90.0351 48.7 89.6001C52.1175 88.1076 55.57 86.7101 58.8575 84.9201C63.7 82.2851 68.14 79.1526 71.895 75.0876C73.695 73.1376 75.25 71.0101 76.51 68.6826C79.2375 63.6476 80.315 58.1476 80.795 52.5276C81.0625 49.4076 81.2425 46.2726 81.1925 42.7526H81.195Z" fill="#EFEDE3"/>
<path d="M81.195 42.7529C81.245 46.2729 81.0625 49.4079 80.7975 52.5279C80.3175 58.1479 79.24 63.6479 76.5125 68.6829C75.25 71.0104 73.6975 73.1379 71.8975 75.0879C68.1425 79.1529 63.7025 82.2854 58.86 84.9204C55.5725 86.7104 52.12 88.1079 48.7025 89.6004C47.705 90.0354 46.9275 89.4854 46.14 89.1679C40.8225 87.0304 35.6625 84.5679 30.9725 81.2379C25.845 77.5979 21.475 73.2554 18.7075 67.5029C17.0925 64.1504 16.1325 60.5979 15.5375 56.9354C15.0425 53.9004 14.925 50.8404 14.7475 47.7754C14.5875 45.0029 14.56 42.2354 14.65 39.4754C14.7475 36.3954 14.6325 33.3079 14.8475 30.2429C15.04 27.4829 14.7875 24.7129 15.1575 21.9629C15.25 21.2754 15.52 20.8629 16.2175 20.7804C19.6 20.3754 22.955 19.8529 26.25 18.9429C31.2875 17.5529 36.03 15.4929 40.4775 12.7629C42.7275 11.3829 44.875 9.85286 46.855 8.09786C47.5225 7.50786 48.29 7.51036 48.9675 8.10536C52.575 11.2554 56.6075 13.7429 60.9275 15.7804C65.2175 17.8054 69.71 19.2054 74.3775 20.0254C76.1125 20.3304 77.865 20.5329 79.6075 20.7804C80.3025 20.8779 80.5975 21.2804 80.6525 21.9754C80.8575 24.5529 80.735 27.1379 80.8575 29.7129C81.005 32.8229 80.9225 35.9354 81.06 39.0404C81.12 40.4029 81.17 41.7679 81.1975 42.7529H81.195Z" fill="#DCD9CC"/>
<path d="M58.9525 42.1025C59 42.67 58.615 43.03 58.2775 43.37C54.1275 47.5425 49.9725 51.71 45.795 55.8525C44.73 56.9075 44.2375 56.8675 43.19 55.8175C41.1925 53.81 39.1975 51.8 37.2075 49.7825C36.5175 49.0825 36.51 48.6225 37.135 47.9625C37.61 47.4625 38.395 47.4975 38.99 48.07C40.755 49.7775 42.5225 51.48 44.26 53.215C44.4675 53.4225 44.5275 53.465 44.7075 53.255C44.85 53.09 45.015 52.945 45.1675 52.7925C48.98 48.99 52.805 45.1975 56.595 41.37C57.1475 40.8125 57.745 40.925 58.305 41.0675C58.6975 41.1675 58.98 41.6025 58.95 42.1025H58.9525Z" fill="#CD504E"/>
<circle cx="48" cy="49" r="19" fill="#E97786" stroke="white" stroke-width="4"/>
<path d="M42 49.9091L46.0625 54L55 45" stroke="white" stroke-width="2.6"/>
</svg>
