<svg width="89" height="96" viewBox="0 0 89 96" fill="none" xmlns="http://www.w3.org/2000/svg">
<g clip-path="url(#clip0_152_271)">
<path d="M54.3866 75.0253C51.2457 75.7953 48.0587 76.2969 44.823 76.2766C42.0719 76.2589 39.3131 76.1576 36.6107 75.5319C35.9748 75.385 35.3338 75.2608 34.6928 75.1266C34.08 74.9189 33.4724 74.6985 32.857 74.5034C28.3445 73.0772 24.2216 70.9012 20.5065 68.0159C19.0066 66.8532 17.5195 65.6474 16.2657 64.2035C15.2145 62.9901 14.1786 61.764 13.1377 60.5431C11.6608 58.2176 10.1891 55.8947 9.06354 53.3666C7.61491 50.119 6.6765 46.7524 6.18935 43.2364C5.75348 40.0952 5.72271 36.9465 6.05089 33.8205C6.37908 30.6794 7.16109 27.6041 8.35333 24.6504C12.9505 13.2612 21.1731 5.649 32.9032 1.73523C35.4928 0.871415 38.1901 0.435707 40.913 0.177323C41.1258 0.157057 41.3642 0.22292 41.5155 0H47.5921C48.8843 0.499037 50.2766 0.45344 51.6175 0.701691C58.1043 1.90242 63.9065 4.53693 68.9857 8.68882C74.7059 13.3625 78.7852 19.1838 81.0953 26.1551C81.9311 28.6756 82.485 31.2721 82.7593 33.9396C82.9952 36.2397 83.1541 38.517 82.9439 40.8248C82.6465 44.1027 81.9773 47.2894 80.9594 50.4255C79.7902 54.0302 77.9775 57.2879 75.8443 60.3987C74.2931 62.2276 72.747 64.054 71.0036 65.7209C68.3242 68.2819 65.3013 70.3338 62.0118 72.0361C59.576 73.2976 56.9813 74.1614 54.3866 75.0278V75.0253ZM72.4625 38.2536C72.3727 22.6618 60.0093 10.9915 45.5461 10.5228C28.9573 9.9858 16.5477 22.9101 16.4862 37.8989C16.4221 53.6503 28.9342 65.769 44.4743 65.7817C60.1016 65.7943 72.2496 53.5515 72.4625 38.2561V38.2536Z" fill="#EFEDE3"/>
<path d="M54.3866 75.0256C56.9813 74.1593 59.576 73.2954 62.0118 72.0339C65.2988 70.3316 68.3243 68.2797 71.0036 65.7187C72.7471 64.0519 74.2931 62.2254 75.8443 60.3965C78.939 65.6807 82.0389 70.9649 85.131 76.2491C86.3437 78.3213 87.5539 80.3934 88.7487 82.4757C88.8615 82.6733 89.1077 82.8987 88.9487 83.1546C88.7897 83.413 88.4693 83.3294 88.259 83.2686C86.8488 82.8683 85.3951 83.1419 83.9593 82.9595C82.003 82.7113 79.9954 82.8709 78.0263 82.6936C76.8007 82.5846 75.5828 82.572 74.3598 82.5264C73.8188 82.5061 73.5137 82.6657 73.2624 83.1622C71.7215 86.2147 70.1524 89.2545 68.5807 92.2918C67.9602 93.4925 67.3089 94.6806 66.6064 95.9953C65.3501 93.8725 64.1553 91.8763 62.9835 89.8675C60.1914 85.0874 57.4069 80.3022 54.6225 75.517C54.5302 75.36 54.4661 75.1852 54.3892 75.0205L54.3866 75.0256Z" fill="#E97786"/>
<path d="M13.1376 60.543C14.1812 61.764 15.2145 62.99 16.2657 64.2034C17.5169 65.6473 19.0065 66.8531 20.5065 68.0159C24.2242 70.9011 28.3445 73.0771 32.857 74.5033C33.4724 74.6984 34.08 74.9188 34.6928 75.1265C32.5288 78.8097 30.3674 82.493 28.2034 86.1737C26.3805 89.2743 24.5549 92.3775 22.7294 95.4755C22.6525 95.6047 22.5474 95.7187 22.3961 95.9163C21.4756 94.1659 20.5706 92.4813 19.6962 90.7816C18.4014 88.261 17.1169 85.7329 15.8554 83.1947C15.617 82.7134 15.3426 82.5031 14.776 82.531C11.448 82.683 8.10973 82.6982 4.79454 82.9819C3.39718 83.101 1.9665 82.8476 0.594781 83.2833C0.428123 83.3365 0.228135 83.3163 0.0768617 83.1466C-0.110307 82.9388 0.0922454 82.7792 0.161472 82.6627C2.77414 78.1739 5.4022 73.6902 8.03281 69.2115C9.73015 66.3186 11.4377 63.4333 13.1402 60.543H13.1376Z" fill="#E97786"/>
<path d="M72.4651 38.2532C72.2522 53.5511 60.1042 65.794 44.4769 65.7788C28.9368 65.7661 16.4221 53.6473 16.4888 37.896C16.5503 22.9072 28.9599 9.98542 45.5487 10.5199C60.0119 10.9886 72.3753 22.6589 72.4651 38.2507V38.2532ZM31.8392 54.6125C31.7777 56.4034 32.7391 57.0595 34.0442 56.4009C37.0748 54.8734 40.1054 53.3332 43.0873 51.7145C44.1308 51.1471 44.9743 51.1826 45.9973 51.7399C48.8638 53.3028 51.7919 54.7569 54.6712 56.2971C55.3532 56.6618 55.9455 56.7657 56.5967 56.3199C57.2788 55.8537 57.1711 55.1495 57.0685 54.5264C56.5352 51.2712 56.0198 48.011 55.3404 44.7863C55.125 43.7578 55.3994 43.1372 56.0763 42.4861C58.4992 40.1506 60.8811 37.7719 63.3271 35.4616C63.9553 34.8689 64.0425 34.2128 63.8707 33.5136C63.6938 32.779 62.9323 32.7283 62.34 32.6447C59.0992 32.1761 55.8532 31.7404 52.6072 31.3275C51.5073 31.1882 50.833 30.6638 50.3535 29.6556C48.9459 26.6968 47.4537 23.7786 45.9794 20.8502C45.6692 20.2321 45.3384 19.6698 44.4538 19.6774C43.5821 19.685 43.2488 20.1992 42.9283 20.8452C41.4361 23.8698 39.9259 26.8868 38.4362 29.914C38.0952 30.6081 37.6209 31.0514 36.8056 31.1578C35.0082 31.3883 33.2186 31.6619 31.4264 31.9253C29.8521 32.1584 28.283 32.4497 26.7036 32.6169C25.8882 32.703 25.2011 32.9057 24.8704 33.6707C24.5345 34.4509 25.0909 34.9423 25.596 35.4312C27.9984 37.739 30.388 40.0543 32.7955 42.357C33.2853 42.8256 33.7314 43.35 33.6365 44.0339C33.4288 45.5564 33.1237 47.0661 32.8648 48.5835C32.5007 50.7089 32.1417 52.8367 31.8366 54.6176L31.8392 54.6125Z" fill="#DCD9CC"/>
<path d="M31.8391 54.6151C32.1417 52.8342 32.5006 50.7064 32.8673 48.581C33.1262 47.0636 33.4339 45.5539 33.639 44.0314C33.7313 43.35 33.2878 42.8256 32.7981 42.3545C30.3931 40.0518 28.0009 37.7365 25.5985 35.4287C25.0908 34.9424 24.5344 34.4484 24.8729 33.6682C25.2036 32.9032 25.8908 32.7005 26.7061 32.6144C28.2881 32.4447 29.8546 32.1533 31.4289 31.9228C33.2211 31.6594 35.0108 31.3858 36.8081 31.1553C37.6234 31.0514 38.0978 30.6056 38.4388 29.9115C39.9284 26.8843 41.4386 23.8673 42.9308 20.8427C43.2487 20.1967 43.5846 19.6799 44.4564 19.6749C45.3384 19.6673 45.6691 20.2296 45.9819 20.8477C47.4536 23.7761 48.9484 26.6943 50.356 29.6531C50.8355 30.6613 51.5098 31.1857 52.6097 31.325C55.8583 31.7379 59.1042 32.1761 62.3425 32.6422C62.9374 32.7284 63.6963 32.779 63.8732 33.5111C64.0424 34.2103 63.9552 34.8689 63.3296 35.4591C60.8836 37.7694 58.5017 40.1481 56.0788 42.4837C55.4019 43.1347 55.1275 43.7553 55.3429 44.7838C56.0224 48.0085 56.5377 51.2687 57.071 54.5239C57.1736 55.1445 57.2787 55.8513 56.5993 56.3174C55.9454 56.7632 55.3557 56.6593 54.6737 56.2946C51.7944 54.7544 48.8664 53.3003 45.9999 51.7374C44.9768 51.1801 44.1333 51.1446 43.0898 51.712C40.1079 53.3333 37.0799 54.8709 34.0467 56.3984C32.7417 57.0571 31.7827 56.3984 31.8417 54.61L31.8391 54.6151Z" fill="white"/>
</g>
<defs>
<clipPath id="clip0_152_271">
<rect width="89" height="96" fill="white"/>
</clipPath>
</defs>
</svg>
