<svg width="105" height="92" viewBox="0 0 105 92" fill="none" xmlns="http://www.w3.org/2000/svg">
<g clip-path="url(#clip0_153_289)">
<path d="M103.843 20.8833C101.777 17.6253 98.7897 16.1649 94.9637 16.1839C90.1237 16.2084 85.2837 16.1921 80.441 16.1839C80.0792 16.1839 79.69 16.3063 79.3529 16.0615C77.3112 16.0615 75.2666 16.0615 73.2248 16.0615C72.885 16.3063 72.4986 16.1839 72.1368 16.1839C65.9621 16.1921 59.7901 16.1893 53.6154 16.1921C53.2427 16.1921 52.8727 16.2383 52.5 16.2601C45.61 16.2573 38.7227 16.2519 31.8327 16.2492C29.7526 16.2492 27.6697 16.2492 25.5895 16.2492C20.1219 16.2437 14.6543 16.2138 9.18668 16.2437C6.13085 16.2601 3.62315 17.5029 1.78417 19.926C0.786572 21.2396 0.0274098 22.7244 0.0164472 24.4079C-0.0191813 29.8334 0.00822524 35.2589 0.0246692 40.6844C0.0246692 41.1114 0.0301505 41.5329 0.117851 41.9762C0.690648 44.8263 2.13771 47.176 4.12743 49.2402C9.54571 54.3121 16.3151 56.6074 23.3257 58.3724C27.6697 59.4657 32.0794 60.2027 36.5439 60.6732C38.3637 60.8636 40.1972 60.937 42.006 61.2416C41.7539 60.8037 41.8553 60.3224 41.8526 59.8573C41.8416 57.3907 41.8882 54.9213 41.8197 52.4574C41.7676 50.4912 43.4175 49.1205 45.0399 49.183C47.523 49.2755 50.0115 49.2238 52.4973 49.232L52.4726 49.1694C52.4808 49.1151 52.489 49.0579 52.4973 49.0036C54.7336 49.009 56.97 49.0117 59.2064 49.0253C59.5709 49.0253 59.9546 48.922 60.2917 49.1613C62.254 49.5067 63.1612 50.5782 63.1612 52.5662C63.1612 54.7962 63.1749 57.0263 63.1529 59.2563C63.1474 59.9199 63.0543 60.5807 62.9995 61.2443C65.9703 61.0376 68.9302 60.7194 71.8792 60.2952C74.9651 59.8519 78.0292 59.3352 81.0576 58.5954C87.4297 57.0399 93.5906 55.0029 98.9267 51.0296C99.6009 50.5265 99.9928 49.6943 100.864 49.4387C100.892 49.2374 100.955 49.0661 101.108 48.9084C102.448 47.5377 103.454 45.9576 104.192 44.1872C104.504 43.4366 104.386 42.5446 104.995 41.9082V23.7987C104.424 22.9012 104.416 21.7971 103.838 20.886L103.843 20.8833Z" fill="#EFEDE3"/>
<path d="M100.897 70.5888C100.889 63.5397 100.878 56.4879 100.87 49.4388C99.9983 49.6944 99.6064 50.5293 98.9322 51.0297C93.5962 55.003 87.4379 57.0399 81.0632 58.5955C78.0347 59.3352 74.9707 59.852 71.8847 60.2952C68.9358 60.7168 65.9758 61.0377 63.005 61.2444C62.3225 64.1706 60.7056 66.4415 58.0992 67.9671C56.3835 68.9706 54.4952 69.4221 52.5 69.4085L52.5055 69.3378C47.5093 69.7158 42.9242 65.903 42.0061 61.2417C40.2 60.9371 38.3637 60.8636 36.5439 60.6733C32.0794 60.2028 27.6697 59.4658 23.3258 58.3725C16.3152 56.6075 9.54574 54.3122 4.12746 49.2402C4.11924 49.5448 4.10005 49.8494 4.10005 50.154C4.10005 61.0295 4.11376 71.9023 4.08635 82.7779C4.08087 84.5809 4.5687 86.1963 5.53068 87.6812C7.15314 90.1859 9.51285 91.7878 12.4618 91.9074C17.4032 92.1032 22.3583 91.9373 27.3079 91.9292C35.7053 91.9183 44.1054 91.9129 52.5028 91.9047C52.5686 91.921 52.6371 91.9482 52.7028 91.9482C65.8553 91.9482 79.0077 91.9944 92.1601 91.9074C94.8761 91.8884 97.1371 90.5748 98.8719 88.4182C100.33 86.607 100.895 84.5483 100.895 82.2856C100.895 78.3885 100.897 74.4886 100.895 70.5915L100.897 70.5888Z" fill="#DCD9CC"/>
<path d="M79.1721 8.18861C78.7062 4.99585 76.9796 2.73861 74.1814 1.19934C72.6219 0.337242 70.9392 -0.00270338 69.1742 1.61767e-05C63.6189 0.0108944 58.0608 0.0326509 52.5055 0.0489683C46.7748 0.0408096 41.0441 0.0190531 35.3134 0.0408096C34.4802 0.0435291 33.6416 0.22302 32.8194 0.388913C28.7111 1.21294 25.5155 5.52888 25.6224 9.45321C25.6855 11.7186 25.6032 13.9867 25.5868 16.2521C27.6669 16.2521 29.7498 16.2521 31.83 16.2521C31.8163 14.1852 31.9204 12.1102 31.7533 10.0542C31.5751 7.87314 33.3785 6.05104 35.7957 6.09999C40.9865 6.20061 46.1801 6.13262 51.3709 6.12991C51.7464 6.12991 52.1218 6.11087 52.4973 6.09999C53.1742 6.12447 53.8539 6.1707 54.5309 6.17342C59.3709 6.17886 64.2109 6.17342 69.0509 6.17886C70.4815 6.17886 71.7696 6.49433 72.5973 7.80515C73.0385 8.50408 73.2029 9.27372 73.2057 10.0814C73.2166 12.0776 73.2167 14.071 73.2194 16.0672C75.2612 16.0672 77.3057 16.0672 79.3475 16.0672C79.2625 13.4428 79.5503 10.8157 79.1666 8.19405L79.1721 8.18861Z" fill="#E97786"/>
<path d="M60.2944 49.1611C57.6881 49.1611 55.0817 49.1665 52.4753 49.1693C52.4836 49.1149 52.4918 49.0578 52.5 49.0034C54.7364 49.0088 56.9728 49.0115 59.2091 49.0251C59.5736 49.0251 59.9573 48.9218 60.2944 49.1611Z" fill="#997A4D"/>
<path d="M63.1639 52.566C63.1639 50.578 62.2567 49.5065 60.2944 49.1611C57.688 49.1611 55.0817 49.1666 52.4753 49.1693L52.5 49.2318C50.0142 49.2237 47.5257 49.2754 45.0426 49.1829C43.4202 49.1231 41.7676 50.491 41.8224 52.4572C41.8881 54.9239 41.8416 57.3905 41.8553 59.8572C41.8553 60.3222 41.7566 60.8008 42.0087 61.2414C42.9269 65.9027 47.512 69.7156 52.5082 69.3375L52.5027 69.4083C54.4979 69.4219 56.3862 68.9704 58.1019 67.9669C60.7082 66.4412 62.3252 64.1704 63.0076 61.2441C63.0625 60.5806 63.1556 59.9197 63.1611 59.2561C63.1803 57.0261 63.1693 54.7961 63.1693 52.566H63.1639Z" fill="#E97786"/>
</g>
<defs>
<clipPath id="clip0_153_289">
<rect width="105" height="92" fill="white"/>
</clipPath>
</defs>
</svg>
