<svg width="100" height="74" viewBox="0 0 100 74" fill="none" xmlns="http://www.w3.org/2000/svg">
<g clip-path="url(#clip0_209_294)">
<path d="M100 70.4618C99.6995 70.4484 99.6702 70.6757 99.5719 70.8924C98.673 72.9145 97.0748 73.8854 94.9128 73.9844C94.6548 73.9951 94.3942 73.9844 94.1336 73.9844C64.7883 73.9844 35.443 73.9737 6.09776 74.0004C3.2922 74.0004 1.2871 72.984 0.319115 70.2344C0.289863 70.1515 0.109031 70.1221 0 70.0686C0 69.8064 0 69.547 0 69.2849C0.438783 68.1535 0.124987 66.9793 0.180832 65.8265C0.241996 64.5827 0.196788 64.58 1.46793 64.5774C3.25231 64.5774 5.03404 64.5774 6.81842 64.5774C17.5699 64.5774 28.3215 64.5774 39.073 64.5774C40.7297 64.5774 40.7882 64.5774 40.7138 66.2919C40.6739 67.2013 40.993 67.3564 41.812 67.351C47.0748 67.3163 52.3375 67.3323 57.5976 67.3323C59.2517 67.3323 59.3208 67.3297 59.2304 65.7061C59.1746 64.7031 59.5415 64.556 60.4324 64.5586C71.4126 64.5881 82.3902 64.5774 93.3704 64.5774C95.5776 64.5774 97.7875 64.5774 99.9947 64.5774V70.4591L100 70.4618Z" fill="#EFEDE3"/>
<path d="M93.373 64.5798C82.3928 64.5798 71.4153 64.5905 60.4351 64.5611C59.5415 64.5611 59.1746 64.7055 59.2331 65.7085C59.3261 67.3294 59.257 67.3348 57.6003 67.3348C52.3375 67.3348 47.0748 67.3161 41.8147 67.3535C40.993 67.3589 40.6765 67.2037 40.7164 66.2943C40.7909 64.5825 40.7324 64.5798 39.0756 64.5798C28.3241 64.5798 17.5726 64.5798 6.82109 64.5798C6.81578 48.5448 6.81046 32.5071 6.8078 16.4721C6.8078 14.0889 6.85035 11.7031 6.79716 9.3199C6.736 6.66924 8.3103 5.15802 10.9244 5.00556C11.1185 4.99486 11.3153 5.00289 11.5094 5.00289C37.1955 5.00289 62.8816 5.00289 88.5677 5.00824C90.2697 5.00824 91.836 5.3827 92.7694 7.02498C93.1709 7.73111 93.381 8.51213 93.381 9.3199C93.3837 27.7408 93.3784 46.1616 93.373 64.5798ZM49.9973 60.8566C62.863 60.8566 75.726 60.8566 88.5917 60.8593C89.198 60.8593 89.6953 60.9449 89.6953 59.998C89.666 44.1502 89.6713 28.3051 89.6713 12.4574C89.6713 11.8876 89.4905 11.3875 89.2352 10.8819C88.3576 9.15139 86.7807 8.72344 85.0814 8.72076C61.6903 8.69936 38.2991 8.70739 14.9107 8.70471C12.1663 8.70471 10.4776 10.6038 10.4883 13.1421C10.5521 28.6609 10.5281 44.1823 10.4989 59.7011C10.4989 60.664 10.7781 60.878 11.6982 60.8753C24.4655 60.8459 37.2328 60.8539 50 60.8539L49.9973 60.8566Z" fill="#DCD9CC"/>
<path d="M49.9973 60.8565C37.2301 60.8565 24.4628 60.8458 11.6956 60.8779C10.7754 60.8779 10.4936 60.664 10.4962 59.7037C10.5255 44.185 10.5494 28.6635 10.4856 13.1447C10.4749 10.6064 12.1663 8.70734 14.908 8.70734C38.2991 8.70734 61.6902 8.69931 85.0787 8.72339C86.778 8.72339 88.3576 9.15402 89.2325 10.8846C89.4878 11.3901 89.6686 11.8903 89.6686 12.46C89.6686 28.3078 89.6633 44.1529 89.6926 60.0006C89.6926 60.9475 89.1953 60.8619 88.589 60.8619C75.7233 60.8565 62.8603 60.8592 49.9947 60.8592L49.9973 60.8565Z" fill="#EFEDE3"/>
</g>
<circle cx="50" cy="20" r="20" fill="#E97786"/>
<path d="M43 21L47.6875 26L58 15" stroke="white" stroke-width="2.6"/>
<defs>
<clipPath id="clip0_209_294">
<rect width="100" height="69" fill="white" transform="translate(0 5)"/>
</clipPath>
</defs>
</svg>
