<svg width="78" height="79" viewBox="0 0 78 79" fill="none" xmlns="http://www.w3.org/2000/svg">
<g clip-path="url(#clip0_182_176)">
<path d="M35.9879 0H41.9356C42.27 0.23755 42.6769 0.26652 43.0514 0.29549C45.2448 0.469307 47.3751 0.93282 49.4997 1.50449C55.4703 3.11133 60.6881 6.10292 65.2544 10.2494C67.9942 12.7389 70.329 15.6049 72.2739 18.7858C74.3488 22.1752 75.8257 25.8215 76.8384 29.6571C77.4058 31.8028 77.7784 34.0025 77.8968 36.2139C77.9904 37.9579 78.042 39.7134 77.9503 41.4709C77.9006 42.4365 77.8567 43.4119 77.7382 44.364C77.4249 46.8824 76.8727 49.3545 76.097 51.7783C74.3947 57.1029 71.632 61.8095 67.9426 65.9463C66.374 67.7057 64.6449 69.3164 62.763 70.7611C59.5054 73.2621 55.9594 75.1953 52.1306 76.6303C48.7354 77.903 45.2161 78.6215 41.6299 78.8899C38.8882 79.0946 36.1121 79.0328 33.3895 78.5867C30.5007 78.1155 27.6749 77.3796 24.9256 76.3078C19.9848 74.3822 15.6458 71.5162 11.8495 67.8313C9.08869 65.1506 6.77687 62.0934 4.91404 58.6923C2.48759 54.26 0.896063 49.5689 0.280852 44.5301C0.200607 43.8754 0.341991 43.1666 -0.0057373 42.5466V36.38C0.21207 35.5283 0.183411 34.6437 0.320974 33.7882C0.739394 31.2137 1.30493 28.6663 2.19909 26.2117C3.79826 21.816 6.05276 17.8105 9.02182 14.1912C10.9057 11.8949 13.0226 9.86703 15.3344 8.05354C17.8946 6.04498 20.6764 4.36861 23.6837 3.13064C26.7999 1.84633 30.0059 0.878743 33.3609 0.434543C34.2302 0.318665 35.1683 0.502139 35.9803 0.0019313L35.9879 0ZM7.47424 41.0074C7.4666 41.7702 7.56595 42.537 7.6653 43.2786C7.95762 45.4648 8.42189 47.626 9.15174 49.7156C10.13 52.516 11.4597 55.1349 13.12 57.5857C14.0008 58.8855 14.9905 60.0945 16.0337 61.2532C16.4445 61.709 16.7425 62.4101 17.5278 62.4082C17.5526 62.7519 17.8086 62.9412 18.0245 63.1498C19.7498 64.8223 21.7597 66.0989 23.7869 67.3504C24.0123 67.4894 24.255 67.5338 24.5148 67.5087C24.553 67.8216 24.8186 67.8795 25.0383 67.9935C28.9684 70.031 33.1316 71.1686 37.5527 71.3018C39.962 71.3752 42.3426 71.2497 44.7346 70.7958C47.7992 70.2145 50.6479 69.1194 53.4298 67.7656C53.4985 67.7328 53.5196 67.5956 53.5616 67.5068C53.9093 67.5532 54.1997 67.4122 54.4844 67.2287C55.0614 66.8579 55.6728 66.5392 56.225 66.1356C57.7343 65.0309 59.3774 64.0845 60.5486 62.5607C61.5326 61.8037 62.3197 60.8573 63.1146 59.911C65.585 56.9754 67.4497 53.6922 68.7164 50.0613C69.7386 47.1296 70.3614 44.1168 70.4493 41.0016C70.5582 40.766 70.5984 40.5188 70.6003 40.2561C70.6175 37.6952 70.392 35.1594 69.836 32.6564C69.4787 31.4107 69.1883 30.1399 68.7527 28.9232C67.0618 24.1877 64.4558 20.0527 60.8486 16.5493C58.4202 14.1912 55.7053 12.2947 52.6923 10.7921C48.6533 8.77778 44.3583 7.85075 39.9008 7.59968C37.7323 7.47801 35.5905 7.79281 33.4449 8.14045C29.7174 8.74495 26.2898 10.0949 23.0456 12.0031C19.8835 13.8629 17.1342 16.2268 14.8014 19.0504C12.6099 21.704 10.8885 24.6724 9.62939 27.8938C9.00844 29.4852 8.441 31.0979 8.23656 32.8129C8.18498 32.9828 8.11811 33.1508 8.08563 33.3247C7.60798 35.8624 7.42456 38.4233 7.47042 41.0035L7.47424 41.0074Z" fill="#EFEDE3"/>
<path d="M17.5278 62.4101C18.8308 60.7743 19.6065 58.9144 19.8186 56.8228C19.8396 56.6123 19.8606 56.425 20.0058 56.2686C20.4109 56.2821 20.8121 56.257 21.219 56.34C23.7811 56.8537 25.9497 58.1709 27.9348 59.799C28.5844 60.332 29.3983 60.755 29.7307 61.626C27.717 62.721 26.0395 64.1637 24.9657 66.2534C24.7594 66.6551 24.5836 67.0607 24.5148 67.5107C24.255 67.5358 24.0123 67.4914 23.7869 67.3523C21.7597 66.1028 19.7498 64.8242 18.0245 63.1517C17.8086 62.9412 17.5526 62.7519 17.5278 62.4101Z" fill="#DCD9CC"/>
<path d="M58.0687 56.2686C58.3133 58.6016 59.1023 60.7144 60.5487 62.5646C59.3775 64.0884 57.7344 65.0328 56.225 66.1395C55.6728 66.5431 55.0614 66.8618 54.4844 67.2326C54.1998 67.416 53.9093 67.5551 53.5616 67.5107C53.1489 66.4987 52.6847 65.533 52.0121 64.6485C51.0167 63.341 49.6908 62.4989 48.3342 61.6723C48.3591 61.3614 48.5788 61.176 48.7832 60.9848C49.5971 60.2161 50.4416 59.4784 51.3702 58.8584C53.4107 57.4949 55.5104 56.2666 58.0725 56.2686H58.0687Z" fill="#DCD9CC"/>
<path d="M13.9989 42.4098C12.8105 41.7435 11.5973 41.1622 10.2351 40.9285C9.29888 40.7682 8.39134 40.886 7.47426 41.0077C7.42649 38.4275 7.61182 35.8666 8.08947 33.3288C8.12195 33.155 8.18882 32.9889 8.24041 32.817C10.5064 31.8398 12.8526 31.1117 15.2466 30.5381C15.2045 30.7892 15.1816 31.0441 15.1166 31.2894C14.2836 34.449 13.7869 37.6395 14.1556 40.9246C14.2091 41.4075 14.3524 41.9482 13.9989 42.4079V42.4098Z" fill="#DCD9CC"/>
<path d="M70.4494 41.0058C68.5617 40.6021 66.7791 40.9459 65.071 41.786C64.7214 41.9579 64.4062 42.2013 64.0756 42.4118C63.7183 41.9231 63.8616 41.3592 63.9266 40.8513C64.2036 38.7172 63.9361 36.6179 63.6687 34.5108C63.4986 33.1608 63.0382 31.8784 62.828 30.54C65.0882 31.1696 67.3427 31.8224 69.5094 32.7379C69.6794 32.8093 69.7233 32.6606 69.8342 32.6606C70.3882 35.1636 70.6137 37.6994 70.5984 40.2603C70.5984 40.521 70.5583 40.7682 70.4475 41.0058H70.4494Z" fill="#DCD9CC"/>
<path d="M62.8348 30.5417C63.0449 31.8801 63.5035 33.1625 63.6754 34.5125C63.9429 36.6195 64.2104 38.7188 63.9334 40.8529C63.8665 41.3589 63.7251 41.9248 64.0824 42.4134C62.1202 43.7576 60.735 45.6078 59.6842 47.711C58.5187 50.0401 58.0163 52.5508 57.9589 55.1523C57.9513 55.525 58.0335 55.8978 58.0755 56.2725C55.5153 56.2705 53.4156 57.4988 51.3731 58.8623C50.4446 59.4823 49.6001 60.2181 48.7862 60.9887C48.5837 61.1799 48.3639 61.3653 48.3372 61.6763C47.1622 61.5893 46.0579 62.0065 44.923 62.1919C43.7346 62.387 42.5405 62.5125 41.3463 62.5666C39.9497 62.6303 38.5569 62.7192 37.1449 62.6149C34.9516 62.4526 32.7754 62.2209 30.6317 61.7265C30.3279 61.6569 30.0299 61.684 29.7337 61.6299C29.4013 60.7569 28.5874 60.334 27.9378 59.8029C25.9527 58.1748 23.7842 56.8576 21.222 56.3439C20.8151 56.2628 20.4139 56.2879 20.0088 56.2725C20.0145 54.347 19.9248 52.4427 19.3917 50.5655C18.4975 47.4116 16.9175 44.7464 14.3076 42.7456C14.1891 42.6548 14.1013 42.5254 14 42.4154C14.3554 41.9557 14.2121 41.4149 14.1567 40.9321C13.7879 37.645 14.2847 34.4564 15.1177 31.2968C15.1827 31.0516 15.2056 30.7966 15.2476 30.5456C17.4142 29.8503 19.6554 29.5123 21.8869 29.155C23.6141 28.8788 25.3489 28.6548 27.0952 28.4945C29.3 28.2937 31.5068 28.1874 33.7097 28.0252C36.8488 27.7934 39.986 27.7761 43.1155 27.9364C45.6413 28.0658 48.171 28.2029 50.693 28.4713C52.808 28.6973 54.9058 29.014 57.0056 29.3134C58.9697 29.5934 60.907 30.0492 62.831 30.5456L62.8348 30.5417ZM39.0422 44.5205C41.8756 44.2964 43.96 42.5042 43.9963 39.4991C44.0307 36.6118 42.0284 34.4603 39.0422 34.4545C36.2068 34.4487 34.1262 36.4167 34.088 39.4257C34.0517 42.313 36.0559 44.2907 39.0422 44.5205Z" fill="#EFEDE3"/>
<path d="M39.0412 47C34.5208 46.6546 31.487 43.7076 31.5419 39.4079C31.5998 34.924 34.7464 31.9914 39.0412 32C43.5616 32.0115 46.5954 35.2147 46.5405 39.5173C46.4855 43.9925 43.3302 46.6633 39.0412 47Z" fill="#E97786"/>
</g>
<defs>
<clipPath id="clip0_182_176">
<rect width="78" height="79" fill="white"/>
</clipPath>
</defs>
</svg>
