<svg width="66" height="71" viewBox="0 0 66 71" fill="none" xmlns="http://www.w3.org/2000/svg">
<g clip-path="url(#clip0_221_194)">
<path fill-rule="evenodd" clip-rule="evenodd" d="M37.0033 2.48374C35.8652 1.58769 34.7271 0.691692 33.445 0.000181492V-0.00390625H32.9899V5.1957C35.0394 6.74198 37.0889 8.28799 39.1383 9.83392C42.7288 12.5424 46.319 15.2506 49.9084 17.9597C53.8602 20.9417 57.81 23.9257 61.7577 26.9139C62.2331 27.2736 62.7228 27.6047 63.2572 27.8704C64.5961 28.0666 65.612 27.0386 65.9025 26.1883C66.1951 25.3299 65.807 24.218 64.9618 23.5783L64.8033 23.4585C63.5741 22.5295 62.344 21.5999 61.0933 20.6985C60.5955 20.3387 60.3964 19.932 60.4005 19.2984C60.4249 15.3149 60.4208 11.3314 60.3903 7.3479C60.3802 5.81091 59.541 4.93409 58.0294 4.90138C56.0193 4.85914 54.0092 4.86777 51.9991 4.8764C50.9941 4.88072 49.989 4.88503 48.984 4.88299C47.9335 4.8789 46.7023 5.93558 46.7754 7.11285C46.812 7.69225 46.7941 8.27556 46.7762 8.85872C46.7683 9.11899 46.7603 9.37923 46.7572 9.63908C46.7531 9.65851 46.7495 9.67795 46.746 9.69738C46.7424 9.71678 46.7389 9.73618 46.7348 9.75558C46.7064 9.72696 46.6759 9.69835 46.6454 9.66974C46.6103 9.6524 46.5742 9.63668 46.5382 9.62099C46.4595 9.58673 46.3811 9.55261 46.3142 9.50214C45.4786 8.87432 44.6451 8.24395 43.8116 7.61364C42.0593 6.2884 40.3073 4.9634 38.5366 3.6628C38.017 3.28181 37.5102 2.88277 37.0033 2.48374ZM32.9899 5.19969V8.56863e-05H32.9858H32.5307C32.4116 0.0673167 32.2892 0.129995 32.167 0.192639C31.9138 0.322343 31.6609 0.451902 31.4376 0.621423C29.0716 2.4067 26.7088 4.19607 24.3459 5.98544C21.9829 7.77489 19.6199 9.56434 17.2538 11.3497C15.7276 12.501 14.1979 13.648 12.6682 14.7949C9.64651 17.0605 6.62465 19.3263 3.62876 21.6263C3.31053 21.8703 2.97772 22.0997 2.64423 22.3296C1.64272 23.0198 0.635113 23.7143 -0.00201416 24.8229V26.2025C0.660343 27.2878 1.43648 28.1605 2.88716 27.7681C4.16173 27.0592 5.30346 26.1615 6.44416 25.2647C6.91819 24.892 7.39203 24.5195 7.87516 24.1607C11.2078 21.6859 14.5188 19.1794 17.8295 16.6732C19.0521 15.7477 20.2746 14.8222 21.4982 13.8984C22.7267 12.971 23.9552 12.0431 25.1838 11.1151C27.4887 9.37424 29.7939 7.63312 32.0999 5.89461C32.2925 5.74898 32.4977 5.61901 32.7027 5.48911C32.7941 5.43123 32.8854 5.37337 32.9756 5.31415C32.9777 5.27532 32.9817 5.23853 32.9899 5.19969Z" fill="#DCD9CC"/>
<path d="M46.7571 9.64062C46.749 9.67946 46.7429 9.71829 46.7348 9.75713C46.7043 9.72851 46.6738 9.6999 46.6454 9.67128C46.6799 9.65084 46.7165 9.64062 46.7571 9.64062Z" fill="#E9E2EF"/>
<path d="M39.6683 70.9389C39.6906 70.8572 39.7252 70.7938 39.8268 70.8224C39.8268 70.8633 39.8268 70.9042 39.8268 70.945C39.7739 70.945 39.7211 70.941 39.6663 70.9389H39.6683Z" fill="#FAF6FF"/>
<path d="M33.0885 5.03585C33.1626 5.08396 33.2373 5.13133 33.312 5.1787C33.5168 5.30854 33.7222 5.43869 33.9145 5.58427C36.218 7.32206 38.5206 9.06246 40.823 10.8026C42.0506 11.7305 43.2781 12.6583 44.5056 13.5856C45.7924 14.5574 47.0778 15.5311 48.363 16.5046L48.3661 16.5069C51.6087 18.9632 54.8508 21.4191 58.1148 23.8446C58.5928 24.2004 59.0617 24.5694 59.5307 24.9384C60.6747 25.8386 61.8195 26.7394 63.0977 27.4509C62.9597 27.8391 62.9435 28.2416 62.9435 28.6523C62.9455 41.9252 62.9455 55.1959 62.9455 68.4667C62.9455 69.6804 62.0666 70.61 60.863 70.61C56.6134 70.6138 52.363 70.6122 48.1129 70.6095V70.6895H14.1129V70.6282C11.1541 70.6293 8.19534 70.6292 5.23698 70.6267C4.03214 70.6267 3.15238 69.6967 3.15238 68.4826C3.15238 55.2077 3.15238 41.9328 3.15441 28.6558C3.15441 28.2449 3.13816 27.8423 3 27.454C4.27957 26.7422 5.42526 25.8414 6.57044 24.9409C7.03998 24.5717 7.50943 24.2025 7.98799 23.8465C11.2553 21.4203 14.5007 18.9636 17.7466 16.5066L17.7477 16.5057C19.035 15.5313 20.3222 14.5569 21.611 13.5843C22.8399 12.6566 24.0687 11.7284 25.2976 10.8002L25.3013 10.7974C27.6047 9.05772 29.9083 7.31779 32.2128 5.58046C32.4053 5.43484 32.6105 5.30488 32.8155 5.175C32.8905 5.12753 32.9654 5.08004 33.0397 5.03184L33.0397 5.00399L33.061 5.01796L33.0885 5L33.0885 5.03585Z" fill="#EFEDE3"/>
<g clip-path="url(#clip1_221_194)">
<path d="M32.8399 47.3893C32.1276 47.3043 31.3814 47.8718 31.1574 48.6514C31.0345 49.0805 31.0749 49.495 31.2908 49.8933C31.4929 50.2657 31.4525 50.5369 31.1485 50.8421C29.7676 52.229 28.4004 53.6304 26.9945 54.9913C25.8715 56.0777 24.7832 57.199 23.6667 58.292C22.9003 59.0416 21.6867 59.2853 20.7909 58.5842C19.9121 57.8977 19.0971 57.114 18.4374 56.2154C17.7283 55.2495 17.9288 54.1355 18.7042 53.3454C21.2048 50.796 23.7459 48.2871 26.2725 45.7636C26.4568 45.5798 26.8166 45.5305 27.081 45.6997C28.0043 46.2915 29.4636 45.6227 29.6374 44.38C29.6471 44.312 29.6302 44.24 29.6253 44.1695C29.6779 43.8587 29.5784 43.5769 29.4515 43.3025C29.2769 42.9252 29.3052 42.7382 29.5946 42.437C29.7757 42.2492 29.9568 42.0622 30.1379 41.8744C30.2107 41.8056 30.2826 41.7351 30.357 41.6679C30.6262 41.4218 30.9674 41.4064 31.2237 41.6606C32.6014 43.0313 33.9742 44.4068 35.3438 45.7855C35.5815 46.0251 35.5831 46.336 35.3745 46.6056C35.3009 46.7003 35.2136 46.7853 35.1328 46.8744C34.9452 47.0557 34.7584 47.2379 34.5709 47.4184C34.2693 47.7082 34.0834 47.7358 33.7058 47.5617C33.4317 47.4354 33.1504 47.3366 32.8399 47.3876V47.3893ZM20.3204 54.512C20.3171 54.7654 20.4012 54.937 20.613 55.0261C20.8629 55.1305 21.0553 55.0334 21.234 54.8545C23.2754 52.807 25.3201 50.762 27.3623 48.7154C27.6251 48.4523 27.6558 48.1584 27.4529 47.9438C27.2492 47.7285 26.8894 47.7382 26.6452 47.9827C24.5997 50.0269 22.5575 52.0735 20.5136 54.1193C20.3947 54.2384 20.3098 54.3687 20.3204 54.5136V54.512ZM22.496 56.7035C22.7006 56.7254 22.8388 56.5764 22.9827 56.4315C24.9684 54.4424 26.9549 52.4532 28.9413 50.4641C29.0052 50.4001 29.0747 50.3386 29.1265 50.2657C29.2817 50.0463 29.2453 49.7128 29.0545 49.5484C28.8581 49.3792 28.5872 49.3922 28.3705 49.5832C28.3253 49.6229 28.284 49.6682 28.242 49.7103C26.241 51.7133 24.2407 53.7162 22.2405 55.7199C22.1839 55.7766 22.1217 55.8308 22.0724 55.8932C21.9438 56.0575 21.9139 56.238 22.0061 56.4299C22.099 56.625 22.2607 56.7052 22.496 56.7027V56.7035Z" fill="#E97786"/>
<path d="M30.1371 41.8752C29.956 42.0622 29.7741 42.2501 29.5938 42.4379C29.3044 42.7391 29.2753 42.9261 29.4507 43.3033C29.5776 43.5778 29.6771 43.8595 29.6245 44.1704C29.4936 44.1461 29.4273 44.0352 29.344 43.9518C28.1304 42.7399 26.9169 41.5287 25.7106 40.3095C25.5618 40.1589 25.439 40.1047 25.215 40.1581C22.9262 40.7046 20.9656 40.1039 19.4092 38.3479C18.5676 37.3982 18.1051 36.2527 18.0833 34.9589C18.0784 34.6562 18.0792 34.3534 18.0881 34.0506C18.0962 33.7923 18.1868 33.5729 18.4471 33.4734C18.6977 33.377 18.8893 33.4831 19.0672 33.662C19.9485 34.5501 20.8338 35.4334 21.7183 36.3182C22.1654 36.7651 22.5688 36.8339 23.142 36.5765C23.5915 36.3749 24.0467 36.1855 24.4979 35.9871C24.7477 35.877 24.9312 35.6949 25.0412 35.4447C25.2603 34.9476 25.4883 34.453 25.688 33.9478C25.8707 33.4847 25.7866 33.0637 25.4228 32.7026C24.5278 31.8145 23.6425 30.9167 22.7459 30.0294C22.5494 29.8351 22.4208 29.6205 22.5316 29.3582C22.6343 29.1145 22.8679 29.0304 23.1275 29.019C24.1421 28.9753 25.1317 29.0449 26.0736 29.491C27.1732 30.0108 28.0366 30.7782 28.6495 31.825C29.2591 32.8662 29.4806 34.0004 29.3901 35.1945C29.365 35.5224 29.2971 35.8535 29.1985 36.1677C29.1289 36.3887 29.2122 36.502 29.3488 36.6388C30.8268 38.1139 32.3023 39.5922 33.777 41.0705C33.8546 41.1482 33.9233 41.2357 33.9961 41.3182C33.5821 41.7433 33.1601 42.161 32.7574 42.5966C32.6055 42.7601 32.5238 42.7318 32.3823 42.5869C31.7355 41.9238 31.0758 41.2721 30.4217 40.6171C30.0231 40.218 29.6261 39.8173 29.2251 39.4214C29.0198 39.219 28.7772 39.1979 28.5339 39.3348C28.3075 39.4627 28.2824 39.6877 28.3204 39.9177C28.3439 40.0626 28.4554 40.1597 28.5549 40.2617C29.0796 40.8042 29.6431 41.3077 30.1387 41.8793L30.1371 41.8752Z" fill="#DCD9CC"/>
<path d="M32.8399 47.389C33.1504 47.3372 33.4317 47.4367 33.7058 47.563C34.0834 47.7371 34.2693 47.7088 34.5709 47.4197C34.7585 47.2392 34.9452 47.0571 35.1328 46.8757C35.2233 46.955 35.3179 47.0303 35.4028 47.1153C36.601 48.3127 37.7976 49.5125 38.9958 50.7107C39.2763 50.9916 39.628 51.0297 39.8487 50.8095C40.0703 50.5885 40.0323 50.2379 39.7517 49.9562C38.8761 49.0778 37.9989 48.2002 37.1225 47.3226C36.2178 46.4167 35.3123 45.5107 34.4084 44.6032C34.33 44.5247 34.2006 44.4623 34.3518 44.3182C34.8037 43.8883 35.2468 43.4471 35.6931 43.0107C35.7828 43.0909 35.8758 43.1678 35.9607 43.2528C38.37 45.6638 40.7793 48.0739 43.1838 50.4897C43.3382 50.6451 43.4894 50.7188 43.7117 50.7075C45.4993 50.6208 47.1745 51.7405 47.738 53.4058C48.2611 54.9513 48.0194 56.3819 46.9069 57.6221C46.0774 58.5467 45.0102 59.0252 43.8007 58.9847C41.7616 58.9167 40.1317 57.5128 39.8043 55.4954C39.7816 55.3569 39.7299 55.2112 39.7525 55.0792C39.8463 54.54 39.59 54.1903 39.223 53.8284C37.1556 51.7883 35.111 49.7263 33.0598 47.6699C32.9765 47.5857 32.8658 47.5201 32.8415 47.389H32.8399ZM43.8678 56.8854C44.9584 56.9623 45.9416 55.9163 45.9302 54.8501C45.9181 53.7046 45.0045 52.776 43.9001 52.7654C42.7537 52.7549 41.8045 53.6892 41.8021 54.8169C41.7996 55.9746 42.7084 56.8846 43.8678 56.8854Z" fill="#DCD9CC"/>
<path d="M35.6907 43.0114C35.2444 43.4478 34.8022 43.889 34.3494 44.3189C34.1982 44.463 34.3276 44.5245 34.406 44.6039C35.3099 45.5114 36.2154 46.4165 37.1201 47.3232C37.9965 48.2008 38.8737 49.0776 39.7493 49.9568C40.0299 50.2386 40.0679 50.5891 39.8464 50.8101C39.6256 51.0303 39.2739 50.9915 38.9934 50.7114C37.7952 49.5132 36.5986 48.3142 35.4004 47.116C35.3156 47.031 35.2202 46.9565 35.1304 46.8764C35.2113 46.7873 35.2986 46.7023 35.3721 46.6076C35.5807 46.338 35.5791 46.0263 35.3414 45.7875C33.9718 44.4087 32.599 43.0333 31.2213 41.6626C30.9659 41.4084 30.6247 41.4238 30.3546 41.6699C30.2802 41.7379 30.2083 41.8075 30.1355 41.8764C29.6399 41.3056 29.0764 40.8012 28.5517 40.2588C28.4531 40.1568 28.3415 40.0596 28.3172 39.9147C28.2792 39.6848 28.3043 39.4597 28.5307 39.3318C28.774 39.195 29.0166 39.2161 29.2219 39.4185C29.6238 39.8143 30.0199 40.2159 30.4185 40.6142C31.0734 41.27 31.7323 41.9209 32.3791 42.5839C32.5206 42.7289 32.6022 42.758 32.7542 42.5937C33.1569 42.1581 33.5789 41.7403 33.9929 41.3153C34.0834 41.2368 34.1788 41.1623 34.2629 41.0781C36.5655 38.774 38.8519 36.4546 41.1779 34.1756C41.7253 33.6396 42.0932 33.0689 42.153 32.3111C42.208 31.6173 42.5475 31.1558 43.1636 30.8182C44.116 30.2969 45.0312 29.7067 45.9634 29.1472C46.3434 28.9198 46.5981 28.9513 46.9102 29.2614C47.1964 29.5456 47.4826 29.8297 47.7648 30.1179C48.0138 30.3721 48.0607 30.6345 47.8788 30.9413C47.2271 32.0423 46.5682 33.1385 45.906 34.2323C45.7233 34.5334 45.4331 34.6921 45.0951 34.765C44.8598 34.8152 44.6238 34.8678 44.3844 34.8961C43.8411 34.9609 43.4248 35.2118 43.0351 35.6061C40.6767 37.996 38.2965 40.3641 35.9244 42.741C35.8395 42.826 35.7659 42.9207 35.6867 43.0114H35.6907Z" fill="#DCD9CC"/>
<path d="M20.3204 54.5114C20.3091 54.3664 20.3948 54.2361 20.5136 54.1171C22.5575 52.0721 24.5998 50.0246 26.6453 47.9804C26.8894 47.7359 27.2492 47.7262 27.4529 47.9416C27.6559 48.1561 27.6251 48.45 27.3624 48.7131C25.3201 50.7597 23.2754 52.8048 21.234 54.8522C21.0553 55.0311 20.8621 55.1283 20.6131 55.0238C20.4012 54.9348 20.3172 54.764 20.3204 54.5097V54.5114Z" fill="#E97786"/>
<path d="M22.4961 56.7033C22.2608 56.7057 22.0991 56.6255 22.0061 56.4304C21.9148 56.2377 21.9439 56.0572 22.0724 55.8937C22.1217 55.8305 22.1832 55.7771 22.2406 55.7204C24.2408 53.7175 26.2418 51.7138 28.242 49.7109C28.2849 49.668 28.3253 49.6234 28.3706 49.5838C28.5873 49.3927 28.8589 49.3797 29.0546 49.549C29.2454 49.7133 29.2818 50.0477 29.1265 50.2662C29.0748 50.3391 29.0053 50.4006 28.9414 50.4646C26.9549 52.4537 24.9684 54.4421 22.9828 56.432C22.8389 56.5762 22.7006 56.7259 22.4961 56.7041V56.7033Z" fill="#E97786"/>
</g>
</g>
<defs>
<clipPath id="clip0_221_194">
<rect width="66" height="71" fill="white"/>
</clipPath>
<clipPath id="clip1_221_194">
<rect width="30" height="30" fill="white" transform="translate(18 29)"/>
</clipPath>
</defs>
</svg>
