<svg width="92" height="69" viewBox="0 0 92 69" fill="none" xmlns="http://www.w3.org/2000/svg">
<g clip-path="url(#clip0_259_250)">
<path d="M-7.20588e-06 4.76727C0.227353 4.65682 0.213847 4.41062 0.279129 4.22195C1.1458 1.71165 3.07724 0.176931 5.63899 0.160824C10.5914 0.126311 15.5438 0.163125 20.494 0.172329L20.4895 0.170028V15.6805C21.1648 14.9765 21.7028 14.461 22.1868 13.8973C22.556 13.467 22.8283 13.3796 23.229 13.8697C23.6477 14.3828 24.1632 14.8154 24.6067 15.3101C24.9219 15.6598 25.174 15.6598 25.4914 15.3124C25.9821 14.7786 26.5224 14.2908 27.0064 13.7524C27.2968 13.4279 27.4994 13.4233 27.7898 13.7524C28.2512 14.2724 28.778 14.7303 29.235 15.2549C29.6109 15.6874 29.8923 15.646 30.248 15.2365C30.6644 14.7579 31.1529 14.346 31.5648 13.8628C31.9093 13.4601 32.1591 13.3727 32.5418 13.8352C32.983 14.3713 33.5143 14.8269 33.9848 15.3377C34.2774 15.6552 34.5115 15.6506 34.8019 15.3377C35.2747 14.8269 35.8037 14.369 36.2471 13.8352C36.6276 13.3773 36.8617 13.4716 37.2286 13.8559C37.7441 14.3966 38.1943 15.0202 38.8539 15.4067C38.8674 15.4919 38.8832 15.5356 38.9057 15.409C38.9237 15.1674 38.9552 14.9258 38.9574 14.6819C38.9574 9.8385 38.9574 4.99506 38.9552 0.153922C39.1308 0.133213 39.3064 0.112505 39.4819 0.0917969C44.0854 0.105602 48.6912 0.128612 53.2947 0.128612C54.6386 0.128612 55.8857 0.397819 57 1.20774C58.8279 2.53537 59.4199 4.45434 59.4402 6.61491C59.4739 10.3424 59.4649 14.0722 59.4739 17.7997C59.4784 29.493 59.4829 41.1839 59.4874 52.8772C59.1588 52.891 58.8324 52.9163 58.5037 52.9163C50.1994 52.9163 41.8951 52.9163 33.5931 52.9163C33.2352 52.9163 32.8772 52.8887 32.5193 52.8749C32.3955 52.6724 32.2717 52.4699 32.1456 52.2675C28.8275 47.0651 23.4767 45.4199 18.4882 46.3426C14.6479 47.0513 11.6156 49.2648 9.69771 52.8634C6.46514 52.96 3.23031 52.9324 -0.0022583 52.8772V4.76727H-7.20588e-06Z" fill="#EFEDE3"/>
<path d="M9.69998 52.871C11.6179 49.27 14.6501 47.0589 18.4905 46.3502C23.4789 45.4298 28.832 47.0727 32.1479 52.275C32.2762 52.4752 32.3978 52.68 32.5216 52.8825C32.8075 53.2207 33.1947 53.0712 33.5346 53.0712C43.1738 53.0804 52.8107 53.0781 62.4499 53.0712C62.7695 53.0712 63.1095 53.1678 63.4111 52.9584C64.3453 51.6423 65.2367 50.3031 66.4951 49.2516C70.2657 46.1017 74.509 45.3746 79.081 46.7873C82.2978 47.7813 84.729 49.9166 86.4263 52.8986C87.7274 53.2414 89.0398 53.0896 90.35 52.9768C90.4107 52.9492 90.4715 52.9216 90.5345 52.894C91.5115 52.9722 92 53.5352 92 54.5829V57.4176C92 59.6058 92 59.5897 89.8119 59.6127C87.9053 59.6311 85.9986 59.516 84.0919 59.6794C84.3463 54.3574 79.7923 50.1007 74.9592 50.1536C69.8537 50.2111 65.8333 54.408 65.7747 59.6426C65.4461 59.6311 65.1197 59.6104 64.791 59.6104C53.6436 59.6104 42.4939 59.6104 31.3465 59.6104C30.9616 59.6104 30.5744 59.6587 30.1894 59.684C30.1512 59.0167 30.2637 58.3426 30.1062 57.6776C29.4533 54.9441 27.9946 52.825 25.595 51.4053C21.7388 49.1251 17.3695 50.0569 14.4115 53.1586C12.7209 54.9303 12.0073 57.1737 11.8745 59.6196C8.09269 59.615 4.31085 59.6104 0.526763 59.6104C0.351178 59.6104 0.177844 59.6564 0.0022583 59.6817C0.0022583 57.4774 0.0022583 55.2731 0.0022583 53.0712C2.9602 53.0735 5.91814 53.0804 8.87608 53.0735C9.15971 53.0735 9.48387 53.1862 9.70223 52.871H9.69998Z" fill="#EFEDE3"/>
<path d="M9.69997 52.8701C9.48386 53.183 9.15745 53.0703 8.87382 53.0726C5.91588 53.0772 2.95794 53.0726 0 53.0703V52.8862C3.23257 52.9414 6.4674 52.9691 9.69997 52.8724V52.8701Z" fill="#EFEDE3"/>
<path d="M90.5345 52.8916C90.4738 52.9192 90.413 52.9468 90.3499 52.9744C89.0421 52.9491 87.7342 52.9238 86.424 52.8962C84.729 49.9142 82.2955 47.7812 79.0787 46.7849C74.5067 45.3698 70.2634 46.0992 66.4929 49.2492C65.2345 50.3007 64.3431 51.6399 63.4088 52.956C62.101 52.9307 60.7953 52.9054 59.4874 52.8801C59.4829 41.1868 59.4784 29.4958 59.4739 17.8025C65.8153 17.7979 72.1611 17.6829 78.5002 17.8278C82.8313 17.9268 85.913 20.444 87.1737 25.2644C88.1574 29.031 89.2942 32.7585 90.3545 36.5044C90.4535 36.8518 90.5435 37.2154 90.5435 37.572C90.5503 42.6778 90.539 47.7835 90.5323 52.8893L90.5345 52.8916ZM85.8973 36.7138C84.8798 33.0944 83.842 29.482 82.8493 25.8534C82.246 23.6446 80.6522 22.2272 78.4394 22.2134C73.6221 22.1789 68.8047 22.2134 63.9874 22.218C63.4201 22.3353 63.67 22.8047 63.6677 23.1061C63.6497 27.3605 63.6812 31.6149 63.634 35.8693C63.625 36.7759 63.8276 37.0704 64.7685 37.0658C71.5353 37.0221 78.3043 37.0428 85.0711 37.0428C85.3098 37.0428 85.5529 37.052 85.787 37.0221C85.9671 36.9991 86.0459 36.8864 85.895 36.7138H85.8973Z" fill="#E97786"/>
<path d="M65.7747 59.6379C65.8332 54.4033 69.8537 50.2064 74.9592 50.1489C79.7923 50.096 84.3463 54.3527 84.0919 59.6747C84.0041 65.0382 79.8216 68.9797 74.7881 68.9866C69.9528 68.9935 65.8107 64.7897 65.7747 59.6379ZM78.4934 59.6103C78.4957 57.4014 77.0572 55.8943 75.0042 55.8299C73.1335 55.7724 71.2539 57.6039 71.3327 59.5229C71.416 61.55 73.003 63.3355 74.9097 63.3194C76.8659 63.3033 78.7951 61.5684 78.4912 59.6126L78.4934 59.6103Z" fill="#DCD9CC"/>
<path d="M11.87 59.6172C12.0029 57.1713 12.7165 54.9279 14.407 53.1562C17.365 50.0545 21.7366 49.1227 25.5905 51.4029C27.9924 52.8226 29.4511 54.9417 30.1017 57.6752C30.2615 58.3402 30.1467 59.0143 30.185 59.6816C30.2277 65.0082 25.712 69.1223 20.8317 68.9957C15.9423 68.8692 11.9196 64.7137 11.8678 59.6172H11.87ZM17.4573 59.5343C17.2592 61.4487 19.3189 63.3953 21.0388 63.3032C23.2201 63.1882 24.6765 61.7823 24.717 59.5504C24.7553 57.4267 23.121 55.8437 21.1018 55.8437C19.0668 55.8437 17.4573 57.475 17.4595 59.5343H17.4573Z" fill="#DCD9CC"/>
<path d="M39.4842 0.0970222C39.3086 0.117731 39.133 0.138439 38.9574 0.159147C32.8007 0.161448 26.6462 0.16605 20.4894 0.168351L20.4939 0.170652C20.6763 -0.0525376 20.9284 0.00728633 21.1603 0.00728633C27.1257 0.00498541 33.0911 0.00268449 39.0565 0.00728633C39.1983 0.00728633 39.3424 0.0648093 39.4842 0.0970222Z" fill="#CDD6E0"/>
<path d="M20.4894 0.168383C26.6462 0.166082 32.8007 0.163782 38.9574 0.15918C38.9574 5.00262 38.9619 9.84375 38.9597 14.6872C38.9597 14.9288 38.9259 15.1704 38.9102 15.4143L38.8584 15.412C38.1988 15.0254 37.7508 14.4019 37.2331 13.8612C36.8662 13.4769 36.632 13.3826 36.2516 13.8405C35.8081 14.3743 35.2791 14.8321 34.8064 15.343C34.516 15.6559 34.2796 15.6605 33.9893 15.343C33.5188 14.8321 32.9875 14.3743 32.5463 13.8405C32.1636 13.378 31.9137 13.4631 31.5693 13.8681C31.1574 14.349 30.6689 14.7631 30.2524 15.2417C29.8968 15.6513 29.6154 15.6927 29.2394 15.2601C28.7847 14.7355 28.258 14.2776 27.7942 13.7576C27.5016 13.4286 27.3013 13.4355 27.0109 13.7576C26.5246 14.296 25.9866 14.7838 25.4959 15.3176C25.1762 15.6651 24.9263 15.6651 24.6112 15.3153C24.1655 14.8206 23.6522 14.3904 23.2335 13.875C22.8328 13.3849 22.5604 13.4723 22.1913 13.9026C21.7073 14.4663 21.1693 14.9817 20.4939 15.6858V0.168383H20.4894Z" fill="#E97786"/>
<path d="M59.4897 52.8818C60.7975 52.9071 62.1032 52.9325 63.4111 52.9578C63.1117 53.1672 62.7718 53.0705 62.4499 53.0705C52.8107 53.0774 43.1737 53.0774 33.5345 53.0705C33.1946 53.0705 32.8097 53.2201 32.5215 52.8818C32.8795 52.8956 33.2374 52.9233 33.5953 52.9233C41.8996 52.9256 50.2039 52.9233 58.5059 52.9233C58.8346 52.9233 59.161 52.8979 59.4897 52.8841V52.8818Z" fill="#EFEDE3"/>
<path d="M38.8561 15.4111L38.9079 15.4134C38.8832 15.54 38.8674 15.4963 38.8561 15.4111Z" fill="#CDD6E0"/>
<path d="M86.4263 52.8984C87.7342 52.9237 89.042 52.9491 90.3522 52.9767C89.042 53.0894 87.7297 53.2413 86.4263 52.8984Z" fill="#40596B"/>
<path fill-rule="evenodd" clip-rule="evenodd" d="M85.895 36.7132C85.8958 36.7132 85.8966 36.7133 85.8973 36.7133H85.8962C85.8981 36.7135 85.8999 36.7137 85.9018 36.7138H85.8973C86.0481 36.8864 85.9671 36.9991 85.7893 37.0221C85.5979 37.0463 85.4035 37.0449 85.2098 37.0435C85.1643 37.0432 85.1188 37.0428 85.0734 37.0428C83.4812 37.0428 81.8889 37.0418 80.2964 37.0408C75.1213 37.0375 69.9454 37.0342 64.7708 37.0658C63.8321 37.0727 63.6272 36.7782 63.6362 35.8694C63.6631 33.3317 63.6627 30.794 63.6623 28.2562C63.6621 26.5395 63.6618 24.8229 63.67 23.1062C63.67 23.0381 63.6573 22.9615 63.6441 22.8822C63.599 22.6113 63.549 22.3103 63.9865 22.2187C63.986 22.2183 63.9856 22.2179 63.9852 22.2175C65.3099 22.2157 66.6347 22.2118 67.9594 22.208C71.452 22.198 74.9446 22.1879 78.4372 22.2129C80.6523 22.2291 82.2438 23.6464 82.8471 25.853C83.5637 28.4764 84.305 31.0939 85.0463 33.7114C85.3297 34.7118 85.613 35.7123 85.895 36.7132ZM85.895 36.7132C85.8881 36.7126 85.8813 36.712 85.8745 36.7113C85.8813 36.712 85.8882 36.7127 85.895 36.7132C85.895 36.7132 85.895 36.7132 85.895 36.7132Z" fill="white"/>
<path d="M78.4934 59.6102C78.7973 61.5683 76.8681 63.3009 74.9119 63.317C73.0052 63.3331 71.4182 61.5476 71.3349 59.5205C71.2561 57.6015 73.1335 55.77 75.0065 55.8275C77.0594 55.8919 78.4979 57.399 78.4956 59.6079L78.4934 59.6102Z" fill="#EFEDE3"/>
<path d="M17.4595 59.5344C17.4595 57.4751 19.0668 55.8438 21.1017 55.8438C23.121 55.8438 24.7553 57.4268 24.717 59.5505C24.6765 61.7824 23.22 63.1883 21.0387 63.3033C19.3211 63.3954 17.2591 61.4488 17.4572 59.5344H17.4595Z" fill="#EFEDE3"/>
</g>
<defs>
<clipPath id="clip0_259_250">
<rect width="92" height="69" fill="white"/>
</clipPath>
</defs>
</svg>
