<svg width="71" height="71" viewBox="0 0 71 71" fill="none" xmlns="http://www.w3.org/2000/svg">
<g clip-path="url(#clip0_176_115)">
<path d="M28.8178 38.6684C29.4121 37.1247 29.3981 35.5549 28.9524 33.9868C28.8562 33.6465 28.8999 33.4728 29.1604 33.2332C30.0081 32.4483 30.8454 31.6495 31.6337 30.8073C32.5059 29.8748 34.9215 30.0172 35.7028 30.9671C36.2761 31.6651 36.8931 32.3684 37.6989 32.8477C38.4575 33.5961 39.2143 34.3463 39.9729 35.0947C40.4921 35.6365 41.0129 36.18 41.5321 36.7218C41.5758 36.7808 41.6212 36.8381 41.6649 36.8972C41.8572 38.2812 41.2891 39.3474 40.2841 40.2556C39.7003 40.7834 39.1444 41.3461 38.6096 41.9226C38.3474 42.2074 38.1079 42.2421 37.7583 42.1205C36.6362 41.7264 35.4459 41.7212 34.315 41.8965C30.1847 42.5338 27.4544 46.882 28.6447 50.8673C28.8195 51.4525 28.7007 51.7737 28.2917 52.1766C23.9708 56.4414 19.671 60.7288 15.3554 65.0006C14.8975 65.4538 14.4133 65.8983 13.8749 66.2474C11.1185 68.0342 8.23268 68.2582 5.22978 66.8725C4.90117 66.7197 4.64772 66.4002 4.24046 66.4141L4.2527 66.4193C4.24046 66.3012 4.20026 66.2908 4.13209 66.388C2.33349 63.2606 3.10957 59.1851 5.46924 56.8165C9.98234 52.286 14.5339 47.7919 19.0645 43.2771C19.3424 43.0009 19.5853 42.9436 19.9856 43.0565C24.1736 44.2373 27.624 41.7142 28.7269 38.9949C28.7689 38.8907 28.7863 38.7761 28.8143 38.6667L28.8178 38.6684ZM14.4605 64.8565C14.8922 64.813 15.2575 64.5717 15.5984 64.2313C18.9578 60.8799 22.3261 57.5389 25.6925 54.1944C25.8236 54.0641 25.9617 53.9374 26.0718 53.7898C26.5298 53.1716 26.3463 52.4492 25.6541 52.1158C24.9602 51.7807 24.504 52.2009 24.0722 52.6298C20.718 55.9534 17.369 59.2823 14.0235 62.6146C13.812 62.8248 13.611 63.0574 13.4624 63.3127C13.1128 63.9135 13.7054 64.8617 14.4622 64.8582L14.4605 64.8565ZM22.2614 49.1638C22.368 48.6602 22.0831 48.3285 21.6444 48.1531C21.2074 47.9795 20.7966 48.0767 20.4383 48.4327C16.911 51.9456 13.375 55.4481 9.8495 58.9645C9.29541 59.5185 9.3059 60.1124 9.81454 60.6055C10.3162 61.0917 10.8108 61.0848 11.3842 60.5187C14.9062 57.0336 18.4177 53.538 21.9363 50.0494C22.1827 49.8063 22.3418 49.5475 22.2614 49.1655V49.1638Z" fill="#E97786"/>
<path d="M4.24394 66.4144C4.64946 66.4005 4.9029 66.72 5.23326 66.8728C8.23616 68.2585 11.1202 68.0345 13.8784 66.2477C14.4168 65.8986 14.9009 65.4541 15.3589 65.0009C19.6745 60.7291 23.9726 56.4417 28.2951 52.1769C28.7042 51.774 28.823 51.4527 28.6482 50.8675C27.4579 46.8823 30.1881 42.5359 34.3184 41.8968C35.4476 41.7232 36.6397 41.7266 37.7618 42.1208C38.1131 42.2441 38.3509 42.2077 38.613 41.9229C39.1479 41.3446 39.7037 40.7837 40.2875 40.2558C41.2926 39.3477 41.8589 38.2814 41.6684 36.8975C42.3728 37.4271 42.9846 38.0609 43.5474 38.726C44.5577 39.919 44.6416 41.5408 43.5054 42.7824C42.8185 43.5343 42.0407 44.1977 41.3852 44.9722C40.9919 45.4375 40.6039 45.4566 40.0568 45.3038C38.4155 44.8471 36.7935 44.8853 35.2448 45.6911C33.1264 46.5749 31.8696 48.2038 31.2264 50.3362C30.8279 51.6594 30.7947 52.9913 31.3487 54.2902C31.4973 54.6375 31.4169 54.865 31.1477 55.1324C26.6696 59.5622 22.2159 64.0163 17.729 68.4374C15.7592 70.3788 13.3313 71.2696 10.5853 70.9258C7.92503 70.5924 5.83279 69.2258 4.41524 66.9197C4.32085 66.7669 4.19325 66.6158 4.24744 66.4109L4.24394 66.4144Z" fill="#E97786"/>
<path d="M39.9729 35.0966C39.2143 34.3481 38.4574 33.598 37.6989 32.8495C38.4347 32.1063 39.1741 31.3648 39.9047 30.6182C40.0568 30.4619 40.2858 30.3473 40.2735 30.0764C40.5707 30.0764 40.714 29.8402 40.8905 29.6648C47.6654 22.9376 54.4368 16.2087 61.2117 9.48329C61.4284 9.26797 61.605 9.03528 61.7431 8.76439C62.451 7.38908 63.1868 6.02767 63.8738 4.64021C64.3072 3.76502 65.1427 3.31527 66.0534 4.30854C67.1598 5.51714 68.3921 6.61461 69.5685 7.75896C69.2608 8.11841 69.0895 8.57685 68.6071 8.80954C67.5654 9.31138 66.5498 9.8688 65.5203 10.4002C64.489 10.9315 63.5539 11.5636 62.7184 12.3971C55.351 19.7564 47.9538 27.0879 40.5689 34.4298C40.3574 34.6399 40.1704 34.8743 39.9711 35.0983L39.9729 35.0966Z" fill="#EFEDE3"/>
<path d="M39.9729 35.0962C40.1722 34.8722 40.3592 34.6378 40.5707 34.4276C47.9556 27.0857 55.3527 19.756 62.7202 12.395C63.5539 11.5615 64.4908 10.9294 65.5221 10.398C66.5516 9.86841 67.5654 9.30926 68.6089 8.80741C69.0913 8.57472 69.2626 8.11629 69.5702 7.75684C69.918 8.09545 70.3078 8.40108 70.6067 8.77789C71.1521 9.46381 71.0018 10.0698 70.2327 10.4797C68.8221 11.2316 67.4098 11.9817 65.9905 12.718C65.6549 12.8916 65.3613 13.0983 65.0956 13.3622C58.4098 20.0095 51.7223 26.6516 45.0366 33.2989C44.8443 33.4899 44.5874 33.6462 44.5891 33.9675C44.264 33.8859 44.1539 34.1741 43.9861 34.3339C43.1611 35.1222 42.3483 35.9262 41.532 36.7233C41.0129 36.1815 40.492 35.638 39.9729 35.0962Z" fill="#EFEDE3"/>
<path d="M3.11997 25.4935C1.69193 23.6632 0.887891 21.5655 0.365267 19.3306C0.113568 18.2592 -0.00354193 17.16 -4.61169e-05 16.0921C0.0034497 14.9338 0.03666 13.7287 0.431687 12.593C0.491116 12.4246 0.461401 12.2214 0.531318 12.0599C0.669402 11.7352 0.751554 11.3219 1.17455 11.2507C1.57831 11.183 1.95761 11.1795 2.31593 11.5407C4.72804 13.9753 7.16812 16.3838 9.59946 18.7993C11.0223 20.2128 12.452 20.218 13.8713 18.8114C15.5825 17.1166 17.2658 15.3923 19.0067 13.7287C20.2984 12.4958 20.2932 10.7993 19.0015 9.54898C16.5701 7.1995 14.1965 4.79099 11.7931 2.41199C11.4732 2.09595 11.1236 1.76775 11.2722 1.29195C11.4243 0.805733 11.8315 0.581725 12.3542 0.479272C13.0603 0.342089 13.7909 0.298677 14.4604 0H18.0873C18.4911 0.345562 19.0172 0.314305 19.4874 0.40113C22.3627 0.93076 24.8674 2.18451 27.0401 4.11375C27.089 4.15717 27.1222 4.22142 27.1624 4.27525C27.1432 4.46452 27.1764 4.63991 27.276 4.80661C28.2496 6.44586 28.8264 8.2223 29.169 10.0856C29.599 12.4281 29.4085 14.7359 28.8229 17.0298C28.6709 17.6271 28.0993 18.2297 28.4436 18.8114C28.7688 19.3636 29.37 19.7648 29.8839 20.1919C30.4345 20.6486 30.9869 21.0967 31.3679 21.7131C31.277 22.3747 31.8608 22.6144 32.2209 22.946C33.4357 24.0695 34.7064 25.1323 35.9422 26.2332C37.3842 27.5165 38.772 28.857 40.2735 30.0743C40.2857 30.3452 40.0585 30.4598 39.9047 30.6161C39.174 31.3645 38.4347 32.1043 37.6971 32.8475C36.8913 32.3682 36.276 31.665 35.7027 30.9669C34.9214 30.0153 32.5058 29.8746 31.6336 30.8071C30.8453 31.6493 30.008 32.4499 29.1603 33.233C28.8999 33.4744 28.8562 33.6463 28.9523 33.9866C29.3963 35.5547 29.4102 37.1228 28.8177 38.6682C27.7218 37.503 26.6031 36.3587 25.5369 35.1675C24.6367 34.1603 23.7715 33.1201 22.7839 32.1963C22.4291 31.8647 22.3242 31.2656 21.7212 31.1978C21.7212 31.0242 21.6268 30.8992 21.5167 30.7741C20.9242 30.1004 20.2967 29.4509 19.76 28.7372C19.1937 27.9819 18.547 27.8013 17.6958 28.1868C17.4476 28.2996 17.1679 28.3517 16.8987 28.409C15.0826 28.7997 13.2648 28.9317 11.3998 28.7077C9.30581 28.4559 7.34641 27.8655 5.4779 26.9104C4.65638 26.4902 4.00441 25.8026 3.11997 25.4917V25.4935Z" fill="#DCD9CC"/>
<path d="M46.4105 35.6137C48.2371 37.2686 50.0549 38.9339 51.8919 40.5766C53.9684 42.4347 56.0694 44.2632 58.1459 46.1213C59.8624 47.6581 61.5509 49.2278 63.2656 50.7664C64.379 51.7666 65.5169 52.7373 66.6373 53.7271C66.7893 53.8608 66.9973 53.9494 67.062 54.1699C67.0253 54.413 67.1337 54.6179 67.2333 54.8263C67.6214 55.6442 67.8224 56.5211 67.8818 57.4102C68.0863 60.4352 67.1215 63.0104 64.7565 64.9917C62.0752 67.2388 59.0583 67.6034 55.7845 66.5459C54.8948 66.2576 54.1887 65.6516 53.3479 65.2869C51.9776 63.8057 50.6072 62.3227 49.2351 60.8415C48.4678 60.0149 47.6935 59.1953 46.9296 58.3653C45.6869 57.0125 44.4581 55.6494 43.2118 54.3001C41.9324 52.9144 40.6162 51.5617 39.3664 50.1517C38.6376 49.3286 37.7933 48.6062 37.1711 47.6893C38.4068 47.1996 39.6583 46.9426 41.0147 47.092C41.8187 47.1805 42.7102 47.3403 43.4408 46.7742C44.0246 46.3227 44.6032 45.8591 45.0961 45.3016C46.6587 43.5322 46.6972 42.3253 45.2516 40.4863C44.4319 39.4444 44.4633 38.1838 45.2237 37.1123C45.5942 36.5896 46.2112 36.2632 46.4087 35.6137H46.4105ZM61.6872 64.1738C63.2446 64.1652 64.4909 63.2691 64.4891 61.5378C64.4891 59.9507 63.5278 59.0251 61.9109 58.9036C60.3501 58.7872 59.1842 60.0202 59.1213 61.4858C59.0636 62.8298 60.2976 64.1843 61.6872 64.1756V64.1738Z" fill="#DCD9CC"/>
<path d="M53.3479 65.2904C54.1887 65.6551 54.8931 66.2611 55.7845 66.5494C59.0601 67.6069 62.0752 67.2422 64.7565 64.9952C67.1215 63.0139 68.0863 60.4386 67.8818 57.4137C67.8224 56.5246 67.6214 55.6477 67.2333 54.8298C67.1337 54.6197 67.0253 54.4165 67.062 54.1734C69.2277 55.7067 70.5526 57.794 70.9074 60.3935C71.236 62.8055 70.6837 65.0751 69.1403 67.0095C67.2054 69.4354 64.6185 70.618 61.5212 70.5242C59.8204 70.4721 58.2298 69.8852 56.835 68.8797C55.4629 67.8899 54.4159 66.5806 53.3497 65.2921L53.3479 65.2904Z" fill="#DCD9CC"/>
<path d="M3.11997 25.4935C4.00266 25.8043 4.65474 26.4919 5.478 26.9122C7.34826 27.8672 9.30592 28.4577 11.3999 28.7094C13.2649 28.9335 15.0828 28.8015 16.8988 28.4108C17.168 28.3535 17.4477 28.3014 17.6959 28.1885C18.5471 27.803 19.1938 27.9836 19.7602 28.739C20.2968 29.4544 20.9243 30.1021 21.5168 30.7759C21.6269 30.9009 21.7213 31.0259 21.7213 31.1996C20.3719 31.7674 18.9596 32.0175 17.5036 32.172C14.4518 32.4967 11.6254 31.79 8.91614 30.4893C6.59841 29.378 4.7666 27.671 3.17601 25.6914C3.13581 25.6428 3.1393 25.5594 3.12182 25.4935H3.11997Z" fill="#DCD9CC"/>
<path d="M41.5303 36.7234C42.3466 35.9246 43.1594 35.1223 43.9844 34.3339C44.1522 34.1725 44.2623 33.8859 44.5874 33.9675C45.1957 34.5163 45.8022 35.0667 46.4105 35.6155C46.213 36.2649 45.596 36.5914 45.2254 37.1141C44.4651 38.1872 44.4336 39.4462 45.2534 40.4881C46.6989 42.327 46.6605 43.5339 45.0978 45.3034C44.6067 45.8608 44.0264 46.3244 43.4426 46.7759C42.7119 47.3403 41.8205 47.1805 41.0165 47.0937C39.6601 46.9461 38.4086 47.2031 37.1728 47.6911C36.4911 47.0607 35.8287 46.4113 35.2396 45.6924C36.7883 44.8866 38.4103 44.8467 40.0516 45.3034C40.6005 45.4562 40.9867 45.4371 41.38 44.9717C42.0355 44.1972 42.8133 43.5339 43.5002 42.782C44.6364 41.5387 44.5525 39.9168 43.5422 38.7255C42.9794 38.0605 42.3676 37.4266 41.6632 36.897C41.6195 36.838 41.574 36.7807 41.5303 36.7216V36.7234Z" fill="#DCD9CC"/>
<path d="M31.3679 21.7131C30.9869 21.0967 30.4345 20.6486 29.8839 20.1919C29.37 19.7648 28.7688 19.3619 28.4436 18.8114C28.0993 18.2297 28.6709 17.6254 28.8229 17.0298C29.4085 14.7359 29.599 12.4298 29.169 10.0856C28.8282 8.2223 28.2496 6.44413 27.276 4.80661C27.1782 4.64165 27.145 4.46452 27.1624 4.27525C29.7598 6.53442 31.3435 9.36664 32.0689 12.7077C32.3521 14.01 32.5024 15.3176 32.4482 16.6408C32.3835 18.2783 32.0584 19.8759 31.5673 21.4405C31.5358 21.5429 31.4361 21.6228 31.3679 21.7131Z" fill="#DCD9CC"/>
<path d="M4.1355 66.3897C4.20367 66.2925 4.24387 66.3011 4.2561 66.421C4.2159 66.4105 4.1757 66.4001 4.1355 66.3897Z" fill="#FFC851"/>
<path d="M14.4587 64.8567C13.7001 64.8619 13.1076 63.9121 13.4589 63.3112C13.6075 63.056 13.8102 62.8233 14.02 62.6132C17.3655 59.2808 20.7144 55.952 24.0687 52.6283C24.5022 52.1994 24.9566 51.7775 25.6505 52.1143C26.3427 52.4495 26.5262 53.1719 26.0683 53.7883C25.9582 53.9359 25.8201 54.0627 25.689 54.1929C22.3243 57.5374 18.9543 60.8784 15.5948 64.2299C15.254 64.5702 14.8869 64.8133 14.4569 64.855L14.4587 64.8567Z" fill="white"/>
<path d="M22.2596 49.1656C22.34 49.5476 22.1792 49.8046 21.9345 50.0495C18.4159 53.5381 14.9044 57.0337 11.3824 60.5188C10.809 61.0866 10.3144 61.0918 9.81274 60.6056C9.3041 60.1125 9.29361 59.5186 9.8477 58.9646C13.3732 55.45 16.9092 51.9475 20.4365 48.4328C20.7931 48.0768 21.2056 47.9796 21.6426 48.1532C22.0813 48.3269 22.368 48.6603 22.2596 49.1639V49.1656Z" fill="white"/>
</g>
<defs>
<clipPath id="clip0_176_115">
<rect width="71" height="71" fill="white"/>
</clipPath>
</defs>
</svg>
