<svg width="80" height="73" viewBox="0 0 80 73" fill="none" xmlns="http://www.w3.org/2000/svg">
<g clip-path="url(#clip0_177_130)">
<path d="M80 20.5203V61.5516C79.9437 61.6061 79.8875 61.6626 79.8291 61.717C79.7749 61.8593 79.704 61.9974 79.6707 62.144C78.9225 65.4844 75.8213 67.7009 72.5179 67.6925C50.7469 67.6339 28.9759 67.6632 7.2049 67.6611C4.11202 67.6611 1.94868 66.2107 0.600235 63.4353C0.420998 63.0649 0.496027 62.5312 0 62.3323V56.5368C0.456428 56.4635 0.762798 56.0491 1.27758 56.0554C3.77648 56.0889 6.27745 56.0847 8.77635 56.0931C8.7826 57.1856 8.78677 58.2803 8.79302 59.3728C8.78051 60.0237 8.73883 60.6768 8.76384 61.3256C8.7951 62.1481 9.23277 62.6274 10.0039 62.6295C14.8891 62.6442 19.7744 62.6463 24.6575 62.6295C25.5204 62.6274 25.9872 62.1209 26.0122 61.2461C26.0289 60.6223 25.9914 59.9965 25.9789 59.3707C25.9852 58.2782 25.9914 57.1856 25.9956 56.0931C26.3582 56.0826 26.7229 56.0659 27.0856 56.0638C34.9824 56.0638 42.8813 56.0638 50.7782 56.0617C52.4705 56.0617 53.4751 55.1031 53.4792 53.4119C53.4938 47.5682 53.4917 41.7246 53.4792 35.8809C53.4751 34.1751 52.4851 33.1997 50.8094 33.1997C44.8863 33.1955 38.9631 33.1955 33.04 33.1997C31.5352 33.1997 30.4786 34.0411 30.0993 35.4874C29.7366 36.8709 29.3573 38.2502 28.9842 39.6315C21.0832 39.6274 13.1801 39.6232 5.27915 39.619C5.12283 38.876 5.26872 38.1288 5.33125 37.3983C5.58968 34.3739 5.9294 31.3579 6.22743 28.3377C6.49837 25.6 6.66302 22.8498 7.04233 20.1289C7.36955 17.7889 8.49915 15.8298 10.3874 14.3291C12.1047 12.9645 14.0701 12.368 16.2084 12.2131C16.99 12.2131 17.7736 12.2131 18.5552 12.2131C32.4335 12.2131 46.3118 12.2131 60.1881 12.2131C63.2122 12.2131 66.2342 12.2152 69.2583 12.2173C70.2483 12.144 71.2383 12.2466 72.199 12.4203C76.0422 13.1173 79.0121 16.1794 79.679 20.0577C79.7166 20.2733 79.7166 20.4826 79.9938 20.5161L80 20.5203ZM61.4573 34.6188C60.5341 37.0132 61.5428 39.6504 63.579 41.1762C65.7361 42.792 68.5351 42.6434 70.7797 40.7701C72.6492 39.2108 73.1452 36.6218 72.3262 34.3174C71.2633 31.7011 69.3062 30.5416 66.0446 30.7111C64.323 30.8011 62.1576 32.3165 61.4594 34.6209L61.4573 34.6188ZM61.3677 23.6702C64.3522 23.6702 67.3367 23.6661 70.3212 23.6744C70.8443 23.6744 71.3008 23.5865 71.5738 23.0758C72.0698 22.1444 71.4404 21.3114 70.2191 21.3093C64.3022 21.3051 58.3853 21.3072 52.4663 21.3093C51.5118 21.3093 50.997 21.7405 50.9887 22.517C50.9824 23.2684 51.493 23.6661 52.4893 23.6682C55.4487 23.6723 58.4062 23.6682 61.3656 23.6682L61.3677 23.6702ZM44.7675 23.664V23.6682C45.3615 23.6682 45.9596 23.6954 46.5515 23.6598C47.1455 23.6263 47.6874 23.4735 47.727 22.7137C47.7728 21.82 47.4873 21.37 46.6661 21.3303C45.4532 21.2717 44.2339 21.2863 43.021 21.324C42.3811 21.3449 41.9456 21.8891 41.9476 22.5233C41.9476 23.1449 42.4082 23.6326 43.0606 23.6577C43.6295 23.6807 44.1985 23.6619 44.7675 23.6619V23.664Z" fill="#EFEDE3"/>
<path d="M1.79042e-05 62.3341C0.496045 62.5329 0.421016 63.0666 0.600252 63.4371C1.9487 66.2124 4.11204 67.6629 7.20492 67.6629C28.9759 67.6629 50.7469 67.6357 72.5179 67.6943C75.8213 67.7027 78.9225 65.4862 79.6707 62.1457C79.7041 61.9992 79.7749 61.8611 79.8291 61.7188C79.8333 63.119 79.8333 64.5192 79.8479 65.9194C79.85 66.1894 79.7332 66.4971 79.9979 66.721V67.035C79.6457 67.0559 79.7207 67.3469 79.6686 67.5582C78.8975 70.748 75.9213 73.0064 72.8201 73.0022C50.9032 72.9771 28.9863 72.9875 7.06945 72.9896C5.06866 72.9896 3.39926 72.2487 1.97996 70.8422C0.946221 69.8166 0.471035 68.5085 -0.00415039 67.1899V62.3341H1.79042e-05Z" fill="#DCD9CC"/>
<path d="M80 66.7184C79.7332 66.4924 79.852 66.1868 79.8499 65.9168C79.8332 64.5166 79.8353 63.1164 79.8311 61.7161C79.8874 61.6617 79.9437 61.6052 80.002 61.5508V66.7184H80Z" fill="white"/>
<path d="M28.9884 39.6395C28.1672 43.1139 25.8684 45.0792 22.5838 45.1106C18.9449 45.1106 15.3059 45.1085 11.6691 45.1065C8.97013 45.0897 6.87764 44.0558 5.69385 41.5044C5.41874 40.91 5.26451 40.2883 5.28327 39.627C13.1843 39.6311 21.0874 39.6353 28.9884 39.6395Z" fill="#EFEDE3"/>
<path fill-rule="evenodd" clip-rule="evenodd" d="M22.1357 56.0686C20.8492 56.0586 19.5628 56.0487 18.2758 56.0382C18.2155 56.0361 18.1531 56.0361 18.0928 56.0361H18.0924C17.3692 56.0382 16.646 56.0403 15.9228 56.0403L8.77628 56.0968C8.77941 56.6431 8.78201 57.1899 8.78462 57.7367C8.78723 58.2835 8.78983 58.8303 8.79296 59.3766H8.793V59.3781C8.7892 59.5761 8.78269 59.7744 8.77619 59.9727C8.76131 60.426 8.74643 60.8794 8.76383 61.3308C8.79509 62.1534 9.23276 62.6327 10.0039 62.6348C14.8871 62.6494 19.7723 62.6494 24.6575 62.6348C25.5204 62.6306 25.9893 62.1262 26.0122 61.2513C26.0236 60.8247 26.0097 60.3972 25.9957 59.9693C25.9893 59.7716 25.9828 59.5738 25.9789 59.376H25.9788C25.983 58.2836 25.9893 57.1913 25.9955 56.0989C24.7085 56.0885 23.4221 56.0785 22.1357 56.0686Z" fill="#E97786"/>
<path fill-rule="evenodd" clip-rule="evenodd" d="M61.4575 34.6159C61.5783 34.6214 61.6749 34.6557 61.7552 34.7082C61.6752 34.6552 61.5788 34.6204 61.4579 34.6144C62.1567 32.3111 64.3214 30.7966 66.0424 30.7066C69.3041 30.5371 71.2611 31.6987 72.3241 34.3128C72.3057 34.3392 72.2859 34.3651 72.266 34.3911C72.2227 34.4478 72.179 34.5051 72.149 34.5682C70.6308 37.8158 66.4486 38.744 63.6463 36.7906C66.4486 38.7455 70.6325 37.8165 72.1511 34.5698C72.1815 34.5058 72.225 34.4489 72.269 34.3913C72.2883 34.3661 72.3077 34.3406 72.3262 34.3145C73.1452 36.6189 72.6492 39.2079 70.7797 40.7672C68.5351 42.6404 65.7361 42.7891 63.579 41.1732C61.5429 39.6475 60.5342 37.0105 61.4572 34.6162L61.4552 34.6142C61.4561 34.6143 61.457 34.6143 61.4579 34.6144C61.4578 34.6149 61.4576 34.6154 61.4575 34.6159Z" fill="#DCD9CC"/>
<path d="M61.3698 23.6698C58.4103 23.6698 55.4529 23.6698 52.4934 23.6698C51.4951 23.6698 50.9866 23.2701 50.9929 22.5187C50.9991 21.7401 51.516 21.311 52.4705 21.311C58.3874 21.3089 64.3043 21.3068 70.2233 21.311C71.4446 21.311 72.074 22.1461 71.578 23.0775C71.305 23.5882 70.8485 23.6761 70.3254 23.6761C67.3409 23.6698 64.3564 23.6719 61.3719 23.6719L61.3698 23.6698Z" fill="#DCD9CC"/>
<path d="M44.7675 23.6637C44.1985 23.6637 43.6295 23.6826 43.0606 23.6596C42.4061 23.6344 41.9476 23.1468 41.9476 22.5251C41.9476 21.891 42.3832 21.3468 43.021 21.3258C44.236 21.2882 45.4532 21.2714 46.6661 21.3321C47.4873 21.3719 47.7728 21.8219 47.727 22.7156C47.6874 23.4733 47.1455 23.6261 46.5515 23.6616C45.9575 23.6951 45.3615 23.67 44.7675 23.67V23.6658V23.6637Z" fill="#DCD9CC"/>
<path fill-rule="evenodd" clip-rule="evenodd" d="M69.2333 9.24504L69.2645 12.2212C66.2439 12.2212 63.2253 12.2192 60.2047 12.2171L60.1943 12.2171C60.1975 11.7202 60.2011 11.2234 60.2048 10.7268C60.2084 10.2339 60.2121 9.74129 60.2152 9.24918C60.2152 9.24918 60.2152 9.24918 60.2152 9.24918C60.2133 8.71064 60.2103 8.17211 60.2073 7.63364C60.2008 6.44979 60.1942 5.26624 60.1985 4.08368C60.2027 3.18787 60.6341 2.74834 61.5366 2.70648C61.9874 2.6861 62.4392 2.68192 62.8906 2.67774C63.0882 2.67591 63.2858 2.67409 63.4832 2.6709H65.9529C66.1562 2.67407 66.3595 2.67532 66.5626 2.67657C67.0302 2.67944 67.4971 2.68231 67.962 2.70857C68.8186 2.75462 69.2375 3.18369 69.2437 4.03763C69.2513 5.29041 69.2447 6.54319 69.2381 7.79676C69.2355 8.27937 69.233 8.7621 69.2312 9.24499C69.2319 9.24499 69.2326 9.24499 69.2333 9.24499L69.2333 9.24504ZM60.2905 9.24918C63.2457 9.24914 66.2028 9.2471 69.158 9.24504C66.2028 9.24508 63.2457 9.24712 60.2905 9.24918Z" fill="#E97786"/>
<path fill-rule="evenodd" clip-rule="evenodd" d="M22.4609 46.9882C18.8785 46.9882 15.2961 46.9861 11.7116 46.984L11.7005 46.984C11.6953 46.6711 11.6895 46.3577 11.6838 46.0443C11.6781 45.7308 11.6723 45.4174 11.6671 45.1045C15.306 45.1045 18.945 45.1066 22.5818 45.1087C22.5627 45.3296 22.5747 45.5523 22.5867 45.775C22.6088 46.1832 22.6308 46.5914 22.4609 46.9882ZM22.463 46.9884C22.6964 48.9182 20.9582 50.2912 19.3159 50.1489C19.0903 50.129 18.8618 50.1313 18.6337 50.1335H18.6337H18.6336C18.5253 50.1345 18.4171 50.1356 18.3093 50.1342L18.3085 50.2026C18.2858 52.1053 18.2632 54.0099 18.2384 55.9126C18.2145 55.9335 18.19 55.9539 18.1655 55.9743C18.141 55.9947 18.1165 56.0151 18.0926 56.0361C17.3694 56.0361 16.6462 56.0381 15.923 56.0402L15.8979 50.2782C16.0222 50.2287 16.1473 50.1922 16.2729 50.1658C16.1465 50.1922 16.0208 50.2288 15.8958 50.2786L15.8463 50.2795C14.8854 50.2961 13.9283 50.3127 13.076 49.7365C12.1006 49.0752 11.5733 48.1982 11.6983 46.9863C15.2852 46.9863 18.872 46.9884 22.4609 46.9905L22.463 46.9884Z" fill="#DCD9CC"/>
<path d="M65.9549 2.67083C65.1317 2.67083 64.3084 2.67083 63.4852 2.67083C63.5144 2.03246 63.3706 1.392 63.6102 0.753636C63.8291 0.169686 64.2438 -0.0835682 64.8003 0.0210823C65.3714 0.129919 65.8382 0.416661 65.8215 1.14921C65.8111 1.65572 65.6902 2.18316 65.9549 2.67083Z" fill="#DCD9CC"/>
<path d="M18.0925 56.0366C18.1405 55.9947 18.1905 55.9549 18.2384 55.9131C18.2634 55.9508 18.2759 55.9926 18.2759 56.0387C18.2155 56.0387 18.153 56.0387 18.0925 56.0366Z" fill="#78777E"/>
</g>
<defs>
<clipPath id="clip0_177_130">
<rect width="80" height="73" fill="white"/>
</clipPath>
</defs>
</svg>
