<svg width="54" height="76" viewBox="0 0 54 76" fill="none" xmlns="http://www.w3.org/2000/svg">
<g clip-path="url(#clip0_180_156)">
<rect y="10" width="54" height="66" rx="4" fill="#EFEDE3"/>
<path d="M41.506 10.5395C41.4867 11.6943 41.4673 12.8491 41.448 14.0063C41.3996 14.0575 41.3512 14.1086 41.3028 14.1598C36.0395 14.1696 30.7738 14.1866 25.5105 14.1866C21.2394 14.1866 16.9683 14.1696 12.6972 14.1598C12.6488 14.1086 12.6004 14.0575 12.552 14.0063C12.5326 12.8515 12.5133 11.6967 12.4939 10.5395C12.5036 9.08258 12.5447 7.62569 12.5108 6.17122C12.4963 5.54997 12.656 5.33314 13.3046 5.34776C15.1122 5.38674 16.9223 5.31852 18.73 5.36968C19.4148 5.38917 19.6665 5.13824 19.9544 4.53404C21.4282 1.43021 23.9957 -0.111964 27.1173 0.00741396C30.1954 0.124356 32.6202 1.5374 33.939 4.48044C34.2367 5.14798 34.619 5.40135 35.3571 5.37943C37.1333 5.32583 38.9143 5.39161 40.693 5.34776C41.3415 5.33314 41.5012 5.54997 41.4867 6.17122C41.4528 7.62569 41.4939 9.08258 41.5036 10.5395H41.506Z" fill="#DCD9CC"/>
<path d="M36.146 32.0518C33.2203 32.0518 30.2923 32.0518 27.3666 32.0518C26.3551 32.0518 25.7356 31.5621 25.7356 30.7776C25.7356 29.9931 26.3551 29.501 27.3642 29.501C33.2179 29.501 39.0692 29.501 44.923 29.501C45.9345 29.501 46.554 29.9907 46.554 30.7752C46.554 31.5596 45.9345 32.0518 44.9254 32.0518C41.9997 32.0518 39.0716 32.0518 36.146 32.0518Z" fill="#DCD9CC"/>
<path d="M36.1509 44.986C39.0741 44.986 41.9974 44.986 44.9206 44.986C46.0192 44.986 46.5129 45.3368 46.5492 46.1237C46.5879 46.9399 45.9539 47.527 44.9036 47.5294C39.0572 47.5441 33.2107 47.5416 27.3642 47.5294C26.6262 47.5294 25.9849 47.281 25.7647 46.4697C25.5372 45.6243 26.147 44.9908 27.1973 44.9884C30.181 44.9811 33.1647 44.986 36.1485 44.986H36.1509Z" fill="#DCD9CC"/>
<path d="M36.1435 62.8633C33.1864 62.8633 30.2317 62.8657 27.2746 62.8633C26.3986 62.8633 25.7525 62.359 25.7355 61.6841C25.7162 60.9216 26.3357 60.3222 27.2286 60.3198C33.1719 60.3101 39.1152 60.3101 45.056 60.3198C45.9514 60.3198 46.5709 60.9216 46.5515 61.6841C46.5346 62.359 45.8885 62.8633 45.0124 62.8657C42.0553 62.8706 39.1006 62.8657 36.1435 62.8657V62.8633Z" fill="#DCD9CC"/>
<path d="M8.37046 60.5048C8.78426 60.4049 9.10127 60.5681 9.38924 60.8873C9.91436 61.472 10.5435 61.9788 10.9815 62.6195C11.3276 63.1262 11.4945 62.907 11.7728 62.6463C13.9532 60.612 16.1359 58.5801 18.3187 56.5483C18.9067 56.0001 19.6641 55.966 20.1554 56.4557C20.6151 56.9137 20.6345 57.8468 20.1094 58.3414C18.3525 59.9883 16.5594 61.5963 14.7977 63.2383C13.9144 64.0593 13.0989 64.9486 12.1552 65.7063C11.4679 66.2593 10.8944 66.2983 10.2967 65.6161C9.34326 64.5295 8.3632 63.4673 7.42186 62.371C7.12905 62.0299 6.93062 61.6401 7.21133 61.1334C7.47752 60.651 7.79695 60.3903 8.36804 60.5072L8.37046 60.5048Z" fill="#E97786"/>
<path d="M20.4989 26.575C20.5038 26.8576 20.4457 27.1037 20.2255 27.3132C18.6066 28.8505 17.007 30.4073 15.3809 31.9373C14.35 32.9069 13.2828 33.8351 12.2423 34.7902C11.4558 35.5138 11.0105 35.5552 10.2676 34.7756C9.31418 33.7742 8.41156 32.7218 7.51378 31.6669C6.9088 30.9555 6.9451 30.3927 7.55734 29.8494C8.14537 29.328 8.806 29.4109 9.43034 30.0808C9.94578 30.6314 10.4878 31.1601 10.9791 31.7326C11.2985 32.1029 11.5211 32.0737 11.8575 31.7497C13.7039 29.9761 15.572 28.2244 17.4305 26.4605C17.825 26.0853 18.2339 25.7345 18.7155 25.4836C19.4971 25.0767 20.4965 25.6931 20.5014 26.5726L20.4989 26.575Z" fill="#E97786"/>
<path d="M8.27844 44.9933C8.83744 44.9762 9.21494 45.1858 9.52953 45.5366C10.0111 46.0726 10.5168 46.5891 10.9669 47.1518C11.2791 47.5441 11.5356 47.471 11.8381 47.186C13.1497 45.9434 14.4589 44.6985 15.7729 43.456C16.6271 42.6496 17.474 41.8359 18.3501 41.0538C18.8098 40.6445 19.7851 40.7225 20.1795 41.144C20.6514 41.6483 20.6272 42.4181 20.0246 43.0053C18.8582 44.1406 17.658 45.2369 16.4625 46.343C15.3373 47.3857 14.2023 48.4138 13.0747 49.4541C12.7649 49.7392 12.5012 50.0876 12.1624 50.3288C11.5405 50.7722 10.9089 50.8672 10.3233 50.2143C9.35529 49.1399 8.36556 48.0849 7.40244 47.0081C7.08301 46.6524 6.93782 46.1993 7.16529 45.7583C7.40244 45.2978 7.74122 44.8983 8.28086 44.9909L8.27844 44.9933Z" fill="#E97786"/>
<path d="M12.552 14.0039C12.6004 14.0551 12.6488 14.1062 12.6972 14.1574C12.581 14.172 12.5278 14.1257 12.552 14.0039Z" fill="#2B728B"/>
<path d="M41.3029 14.1574C41.3513 14.1062 41.3997 14.0551 41.4481 14.0039C41.4723 14.1257 41.419 14.172 41.3029 14.1574Z" fill="#2B728B"/>
</g>
<defs>
<clipPath id="clip0_180_156">
<rect width="54" height="76" fill="white"/>
</clipPath>
</defs>
</svg>
